/* XPM */
static char *_3ea2f8be6d2490eed2776f7cf30cfb4PUOnSust1l20UzOy[] = {
/* columns rows colors chars-per-pixel */
"32 32 140 2 ",
"   c None",
".  c #141B32",
"X  c #1D2134",
"o  c #252636",
"O  c #292736",
"+  c #292936",
"@  c #2D2A3A",
"#  c #312C37",
"$  c #3A2E37",
"%  c #352D39",
"&  c #3B2F3A",
"*  c #3D3637",
"=  c #3D323A",
"-  c #4E3637",
";  c #42353A",
":  c #4A363A",
">  c #43383B",
",  c #4D3D3E",
"<  c #53393B",
"1  c #5C3E3B",
"2  c #4F403B",
"3  c #56453D",
"4  c #5B473A",
"5  c #5E493A",
"6  c #63433C",
"7  c #6D463D",
"8  c #614A3A",
"9  c #684F3B",
"0  c #7D4C3E",
"q  c #6C513B",
"w  c #75583C",
"e  c #7B5B3C",
"r  c #433E45",
"t  c #543740",
"y  c #563940",
"u  c #593B41",
"i  c #633E43",
"p  c #464046",
"a  c #5C4141",
"s  c #574F50",
"d  c #5F5554",
"f  c #674044",
"g  c #6D4445",
"h  c #774648",
"j  c #7C4749",
"k  c #7F4849",
"l  c #675044",
"z  c #6C5344",
"x  c #725445",
"c  c #765846",
"v  c #7D5D47",
"b  c #655B59",
"n  c #874F3D",
"m  c #85513F",
"M  c #89523F",
"N  c #915A3F",
"B  c #86613D",
"V  c #8A643E",
"C  c #99613E",
"Z  c #9C6C3D",
"A  c #A2713F",
"S  c #824A4A",
"D  c #8F4F4D",
"F  c #865E49",
"G  c #94524E",
"H  c #9B554F",
"J  c #A25E42",
"K  c #A15751",
"L  c #A55952",
"P  c #AB5B53",
"I  c #B45E54",
"U  c #866249",
"Y  c #986240",
"T  c #91674B",
"R  c #9A6F4D",
"E  c #9D714E",
"W  c #AE6344",
"Q  c #B56644",
"!  c #BD6945",
"~  c #A57140",
"^  c #A4754F",
"/  c #A6784F",
"(  c #BE7144",
")  c #B76055",
"_  c #BB6256",
"`  c #A67750",
"'  c #AF7B51",
"]  c #857569",
"[  c #8E7C6E",
"{  c #917E70",
"}  c #C46D46",
"|  c #C96E46",
" . c #CD7047",
".. c #C67944",
"X. c #CB7D45",
"o. c #D07147",
"O. c #D77D46",
"+. c #DB7F47",
"@. c #C06357",
"#. c #C46558",
"$. c #BA8353",
"%. c #BD9168",
"&. c #B4997D",
"*. c #CD8B43",
"=. c #DB8147",
"-. c #D38D44",
";. c #D99044",
":. c #C78B55",
">. c #CC8E57",
",. c #CF9057",
"<. c #D69558",
"1. c #D89659",
"2. c #DB985A",
"3. c #E08647",
"4. c #E58A47",
"5. c #EA8D47",
"6. c #EB8E48",
"7. c #EC9C46",
"8. c #F29F46",
"9. c #E19B5B",
"0. c #F5A046",
"q. c #FCA547",
"w. c #EBA15D",
"e. c #F2A65E",
"r. c #F5A85F",
"t. c #FCAC5F",
"y. c #C29469",
"u. c #E9A869",
"i. c #FFAE60",
"p. c #FFB061",
"a. c #AC9780",
"s. c #AD9881",
"d. c #CEB292",
"f. c #E3C39D",
"g. c #E9C8A0",
"h. c #FCD5A6",
"j. c #FFDAAC",
"k. c #FFDFB0",
"l. c #FFE3B2",
"z. c #FFE8B6",
/* pixels */
"o [ j.j.j.j.j.k.f.b o o o o +                                   ",
"o [ k.l.l.k.k.l.h.%.~ ` ` ` E 3 . X X X o                       ",
"o b a.a.a.a.a.a.&.u.p.t.i.p.r.R l z z x x p                     ",
"O # & = = = & % , ' 2.<.<.<.1.w.r.e.w.i.w.U = * > > > *         ",
"o i L P L L L L H a > > > > 2 $.i.w.e.e.e.9.<.<.<.<.<.v o o o + ",
"o g #.#.#.#.#.#._ G S j k j j x z z z z x :.p.i.i.i.i.>.` ` ` ^ ",
"o u S S S S S k S S H #.#.#._ j t t y t u F ^ ^ ` ^ ` <.i.i.i.i.",
"    O O # = & ; > + u K P L L K P _ _ _ ) g & = & & = T 1.<.<.<.",
"      o 6 Q Q X.*.3 o & = = = $ i I _ _ I P L L L L L g > > > > ",
"      o 7 | | 5.7.5 ; m M C A , # y y y u u j I #.#.#.K S j k S ",
"      o 9 } | 4.7.4 1 |  .4.0.q # 1 1 6 q ; & h S k S S G _ #.#.",
"      o g } | 4.7.4 1 }  .=.0.9 < ! | +.8.e O $ = ; ; # ; G P L ",
"      o 7 } | 4.7.3 1 } | 3.7.q < ! | +.8.e : J A } ;.e o % & & ",
"      o 7 } | 4.7.4 3 } | 3.7.9 < ! | =.8.w : Q o.+.q.U o       ",
"      o 7 } | 4.7.4 1 ! | 3.7.9 < ! | =.8.w - Q o.O.0.V o       ",
"      o 7 } | 4.5.4 1 ! | 3.0.9 < ! | =.8.w - Q | O.8.B o       ",
"      o 7 } | 4.7.4 1 }  .=.7.9 < ! | +.0.w : Q  .O.0.V o       ",
"      o 7 .. .5.7.4 1 } | 4.7.9 < ! | =.0.w : Q | O.0.B o       ",
"      o - n S C Z > 4 }  .4.0.q < ! | =.0.w : Q | O.0.B o       ",
"  r p r p r r r r + 1 W Q ..-.5 < !  .=.0.w : Q | O.0.B o       ",
"o ] f.f.f.f.f.g.d.s O * = * ; @ 1 ! | O.8.w : Q | +.0.B o       ",
"o { l.l.l.l.l.z.j.y.~ ^ ` ` R > # < 1 4 9 = < ! o.=.q.V o       ",
"o b a.s.a.a.a.a.&.u.i.i.i.p.i.E z z z l l = $ 0 M N ~ 8 o       ",
"O @ = = = = = % t ' 1.<.<.,.<.w.e.e.e.i.9.T = > > > > % o       ",
"o i L L L L L L H a * r ; * t $.t.u.e.e.u.2.<.<.<.1.<.c o o O + ",
"o g _ #._ #._ @.) D k k k S S x 7 z z z c :.i.i.i.i.i.>.^ ` ` ^ ",
"o g _ _ #._ _ #._ #.#.#.#.#.I h < u u < 1 F ` ` ` ^ ` <.i.i.i.i.",
"O g L L L L L L P L L L L P _ _ _ I _ I I g & = & & = T 1.<.<.<.",
"  & & & & & & & & & & & & i I I I _ _ _ ) P L P L L K g ; > > > ",
"                        o u I #.#.I #.I _ _ _ _ _ #._ H k k k k ",
"                        o u I I _ I I _ _ _ ) _ _ _ _ _ _ _ _ #.",
"                        o y I #._ #.I _ ) _ _ _ _ _ _ _ _ _ _ _ "
};
