/* XPM */
static char *d1c500e13f344e6d98d3d85ab93c5e923WPh140E5qHicpsd[] = {
/* columns rows colors chars-per-pixel */
"32 32 86 1 ",
"  c #512C15",
". c #542F18",
"X c #553119",
"o c #59361D",
"O c #5D391F",
"+ c #5D3B22",
"@ c #5E3F29",
"# c #613D23",
"$ c #5F4126",
"% c #644126",
"& c #64452A",
"* c #69462A",
"= c #66492D",
"- c #6A4B2E",
"; c #6A502F",
": c #644934",
"> c #6B4E31",
", c #714E31",
"< c #6D5233",
"1 c #6C523B",
"2 c #725435",
"3 c #725837",
"4 c #735639",
"5 c #755A3B",
"6 c #795C3D",
"7 c #7B603F",
"8 c #6B5642",
"9 c #6E5A46",
"0 c #6F5B48",
"q c #765A40",
"w c #7A5E41",
"e c #7D6242",
"r c #72604D",
"t c #7B624C",
"y c #7D6551",
"u c #7E6854",
"i c #806343",
"p c #806443",
"a c #816443",
"s c #806643",
"d c #806344",
"f c #836544",
"g c #826646",
"h c #846746",
"j c #836846",
"k c #866947",
"l c #846748",
"z c #836949",
"x c #856949",
"c c #846B4A",
"v c #876B4A",
"b c #876B4B",
"n c #876C4A",
"m c #866D4A",
"M c #876F4D",
"N c #886C4B",
"B c #886D4C",
"V c #896D4C",
"C c #896E4C",
"Z c #886F4C",
"A c #88704D",
"S c #8A714E",
"D c #8B714E",
"F c #8A704F",
"G c #8B734F",
"H c #8C734F",
"J c #8C7250",
"K c #8B7450",
"L c #8D7450",
"P c #8D7451",
"I c #8C7452",
"U c #8F7552",
"Y c #81715E",
"T c #907753",
"R c #907855",
"E c #927955",
"W c #927A57",
"Q c #947E59",
"! c #957E59",
"~ c #947F5C",
"^ c #837562",
"/ c #867967",
"( c #8E7E6B",
") c #938573",
"_ c #968470",
"` c #9A8A76",
/* pixels */
"444+*>>>,>,><,,,>>,>>>>>>>*#114#",
"`yt5zBBFFLLTLLWLJLLLJTBBCCc66y_#",
"www%****,2424556644222>**&%%wwq+",
"Wcz+wewe,##*--*-----##2wiw4#llB#",
"!CkO*wdgcw25eifhgfi62gvcg7*#gcD#",
"!BB#>**5cBk6,26e6466CCv6**2%ccT%",
"!AB*26i22hCFDk224gFDDc,,662*FFT%",
"!DD*6hkvg2fLWTCki6vTi,fvhke*FDR%",
"!GF*6kkCCv656BWHJh666Bvccci*DTW#",
"!HF&6fkChh66e2fTTTc6iclccci-JT!*",
"!TH%266446hCHC2-4BTci246wi5*JJ~#",
"!TT#,426CDHTf26f62dTNvg4262#JT!*",
"!LL#%-6vCCB44fffd626hdce6--#DIW#",
"_LL#2ghc6,-6kffkhhh6*,6g6w4#LLW+",
"3cc%#*-,%*,,,,,2,,,,,*%,**%#clqo",
"_zt6CTTTTTTTWTWTWRWWTTTTDJlqyu(.",
"cYY#7ZcFFAGFGHTFTDDDKGGFFAf%u/u+",
"r1%27eeeejeejejjhhkkjjjjfje3=19X",
"$:5==-*-------:---*-----=&=-w&$ ",
"<e6XO&==<+O+&=&===&%O+<&&&OX7w> ",
"656X+$%<55=++-<<<<%+=5<<$$oX575 ",
"665X==++-563<&&<=%><5<=++&&X5e3 ",
"555X-<==+&=55e>+:<2<=&O$=<=X53< ",
"555.=<-==$++<55e62>+++===;=X<3< ",
"5<1X=<===++>>:><3e5:+$$==;=.15< ",
"353.=;=$+<533:+O+>55e1$+:<&.<<< ",
"333.$=+$15<$O$=<=++$<55=+=&.<3< ",
"<3;.++;<<=++&=>:=:$++<<1<++X<<= ",
";;; =:=<$+@+===&==&$+X$:=1;X<;; ",
"$=;o++++o+o+++++$++++++++++o<=+ ",
"0:$1<33335555557555555375571$:9 ",
"0r1+=<;:;;;=;;:;;;;;;;;;;;$+8r8 "
};
