/* XPM */
static char *fd21a5663b3e4796e81714ba38e36d47s0wlE74PQhBL2yVn[] = {
/* columns rows colors chars-per-pixel */
"32 32 145 2 ",
"   c None",
".  c #4F2C17",
"X  c #4F2E19",
"o  c #502C17",
"O  c #512E19",
"+  c #54311B",
"@  c #533522",
"#  c #583722",
"$  c #553826",
"%  c #5E3E27",
"&  c #573E2C",
"*  c #5B3F2C",
"=  c #5F402D",
"-  c #5B4333",
";  c #5A4739",
":  c #5C4A3B",
">  c #61432E",
",  c #624632",
"<  c #624835",
"1  c #634C3B",
"2  c #5C4D41",
"3  c #5E5246",
"4  c #5F5449",
"5  c #644F40",
"6  c #635141",
"7  c #6B5442",
"8  c #62574B",
"9  c #64594E",
"0  c #6D5B4C",
"q  c #715E4C",
"w  c #645C51",
"e  c #6A5E52",
"r  c #73604D",
"t  c #676156",
"y  c #6A6156",
"u  c #6C655B",
"i  c #6E685E",
"p  c #726456",
"a  c #746759",
"s  c #74695C",
"d  c #78695C",
"f  c #6F6960",
"g  c #746C62",
"h  c #796F63",
"j  c #777066",
"k  c #797267",
"l  c #777269",
"z  c #7A756A",
"x  c #7D796E",
"c  c #7E7A71",
"v  c #80776C",
"b  c #81796C",
"n  c #827D73",
"m  c #858173",
"M  c #848073",
"N  c #838074",
"B  c #838176",
"V  c #868075",
"C  c #868274",
"Z  c #878375",
"A  c #848176",
"S  c #848277",
"D  c #858277",
"F  c #858377",
"G  c #868477",
"H  c #848077",
"J  c #888276",
"K  c #858278",
"L  c #858378",
"P  c #858379",
"I  c #868378",
"U  c #868379",
"Y  c #868478",
"T  c #878478",
"R  c #878578",
"E  c #868479",
"W  c #878579",
"Q  c #86847A",
"!  c #86857A",
"~  c #87857A",
"^  c #87857B",
"/  c #858179",
"(  c #888378",
")  c #888578",
"_  c #898578",
"`  c #888579",
"'  c #888679",
"]  c #898679",
"[  c #898779",
"{  c #8A8779",
"}  c #88847A",
"|  c #89847A",
" . c #89867A",
".. c #89867B",
"X. c #8A877A",
"o. c #8A867C",
"O. c #8B877C",
"+. c #8A867D",
"@. c #8B867D",
"#. c #8B877D",
"$. c #8C867D",
"%. c #89857C",
"&. c #8B887B",
"*. c #8A887C",
"=. c #8B887C",
"-. c #8B897C",
";. c #8B8A7C",
":. c #8C8B7D",
">. c #8C887E",
",. c #8D887E",
"<. c #8D897F",
"1. c #8D8A7E",
"2. c #8C8B7E",
"3. c #8B8980",
"4. c #8B8A80",
"5. c #8C8980",
"6. c #8D8A80",
"7. c #8D8B81",
"8. c #8E8A80",
"9. c #8D8B82",
"0. c #8E8A82",
"q. c #8F8C81",
"w. c #8F8D81",
"e. c #8F8C82",
"r. c #8F8C83",
"t. c #8F8D83",
"y. c #908D81",
"u. c #908C82",
"i. c #908D82",
"p. c #918D82",
"a. c #918D83",
"s. c #918E82",
"d. c #918E83",
"f. c #928F83",
"g. c #918D84",
"h. c #918E85",
"j. c #928E84",
"k. c #938F86",
"l. c #948F86",
"z. c #949185",
"x. c #959188",
"c. c #969188",
"v. c #959289",
"b. c #98938A",
"n. c #9A948C",
/* pixels */
"        0 q 0 q 0 0 0 0 0 0 0 0 r 0 0 0 0 0 0 0 0 0 0 0         ",
"    , d >.9.9.9.4.Q P S P Z S F P P L L B P P B L c S P a ,     ",
"  7 v Q Q P P P L L L Q Q L L Q L Q Q Q 3.3.4.L P S S S P v 7   ",
", | P S S P P n l j j l j z l l l l x x x x c z S S S S S P P , ",
", *.S F S S n e < < < 1 1 1 6 1 1 1 1 1 1 1 < < y c S S S P O.> ",
"< | Q Q S M 6 < 0 p g g j s j s g g s g u p p q < 6 M S S S $.= ",
", >.Q Z Z n % y s j j j j j j k z z k j j j j h s = M F Z S u.> ",
"< u.Z Q Z S % p z k j j j z z k z z z k j k k k h = M Z Q Q g.> ",
", 1.| ) { m = h z z x k k z x x z x x z k k k k h = m Z Z ' t.> ",
"< f.| Z Z m % k x x x x x x x x x z x z z z z k k + C Z R ' z.= ",
", z.| Q Z m > x x x x x c x x x b x x x b b k k k = C { Z Q v., ",
", z.&.&.Z m > z x x x g g x x x n n n x n x x b h > { Z &.| b.> ",
", z.t.t.) ) b 1 a a 0 8 8 0 0 0 s s s s s s a a 7 n >.&.Q | b.> ",
", n.t.u.| | &.C r r r r q q r r q r r r r r r p >.t.*.| &.&.n.> ",
"= S c.u.&.) { { ;.;.;.&.{ :.:.>.:.:.:.{ :.;.:.:.>.&.{ &.:.:.j + ",
"% l x l.z.z.z.u.f.2.z.t.1.1.u.1.u.1.u.1.:.z.1.z.1.u.u.z.) u e + ",
"& l l 3.c / P n S F x x x x x x b P P P n c c c c c c c j e w @ ",
"# l c f f g g f i i i i i i i u i s f f f f f e f f u u f l e . ",
"O c f u f u u i i i i i i u u a u s u u f f u f f f f f u f c @ ",
"O c u f u u u w - - - - - - - - - - - - * ; * ; e g g f u f l o ",
"O l u u u u 3 - ; 3 8 9 8 9 9 0 w 9 9 9 9 9 9 8 2 8 f u e u g X ",
". j f e i y @ 2 4 w w 9 w w w w w w e w e w e e 9 $ u u f u g X ",
"X f e f y y @ 3 9 w 9 w w w w w e w 9 9 9 w w w 9 @ e u u u f X ",
"X f f w y y $ 4 4 8 9 9 9 9 9 9 9 9 9 8 8 8 9 9 8 $ e u e u f X ",
"X f f w w w $ 4 4 4 w w w w 9 9 9 9 9 4 4 9 4 9 4 $ u t t u f X ",
". f w w u w @ 3 4 4 4 4 4 w 9 9 4 4 9 9 9 4 9 9 4 @ w t t t f X ",
". u e w e 9 $ 2 : 4 4 8 4 9 9 9 9 4 4 4 4 4 4 4 3 $ 9 e t t f . ",
". u f w w w w 2 ; ; : : : : : : ; ; ; ; ; ; ; : 2 9 e w w w u . ",
". u u t w w w f 4 : 3 6 3 1 1 3 5 3 5 6 2 3 2 6 t w w w w w f X ",
". w u u u e w w w t t t t u u u u i i u f t t t w w w w w t 9 X ",
"  X 2 t t t w w w w w w w w w w w w t t t w w w w w w w e 2 X   ",
"      - t 4 w w 4 w w w w w w w 4 w w w w w w w w w w u &       "
};
