/* XPM */
static char *d2f62d4890334acfc91c010aa482b374YfQ8gRf2CYGSkrOL[] = {
/* columns rows colors chars-per-pixel */
"32 32 11 1 ",
"  c #141413",
". c #181817",
"X c #1C1C1B",
"o c #211F1D",
"O c #28271F",
"+ c #323929",
"@ c #075929",
"# c #1D783C",
"$ c #289237",
"% c #AFDA2F",
"& c #FFEC24",
/* pixels */
" XXXoX XXXXXoXXXOXXXXoXX. XXXXoX",
".XXOXXX.XOXOXXOOX..XXXOXXXXXXX. ",
"XoXO OOO+O+OOOOOOOOOO+O+O+OXXoOX",
"XXO.+                      OXXXX",
"XXXO                        +X X",
"XXO   @$$$$$$$$$$$$$$$$$$@   +XX",
"XXO  @$$##$########$$$##$$@  +o.",
" XO  $$%%&%&&&&&&&&&&&%&%$$  OXX",
"XXO  $$%&%&&&&&&&&&&&%&%%$$  +XX",
"XXO  @$$#$#######$#$####$$@  OX.",
".X+   @$$$$$$$$$$$$$$$$$$@   OOX",
"XOO                          +.X",
"OXO                          OXX",
"XXO   @$$$$$$$$$$$$$$$$$$@   +XO",
"XOO  @$$####$#$#######$#$$@  +OX",
"XXO  $$%%&%&&&&&&&&&&&%&%$$  + X",
" XO  $$%&%&&&&&&&&&&&%&%%$$  +OX",
"XX+  @$$##$$$########$##$$@  +XX",
"X.+   @$$$$$$$$$$$$$$$$$$@   OXX",
"OX+                          OXX",
".XO                          OXo",
"XXO   @$$$$$$$$$$$$$$$$$$@   OXX",
".X+  @$$#$#######$#$####$$@  OXX",
"XXO  $$%%&%&&&&&&&&&&&%&%$$  +Xo",
"XX+  $$%&%&&&&&&&&&&&%&%%$$  +OX",
"XOO  @$$##$########$$$##$$@  +.X",
"X +   @$$$$$$$$$$$$$$$$$$@   +XX",
"XX.+                        +XXo",
"XXXXO                      OX XX",
"XX XOO+OO++O+OO+O+++OOO+O+OXOXoX",
"XoXXX XXXXXoXXXXXXO XoXX.oXXXXXX",
"XXoXOXXXXX.XX X.XOXXXXoX XXXXXOX"
};