/* XPM */
static char *_669903407753[] = {
/* columns rows colors chars-per-pixel */
"32 32 256 2 ",
"   c black",
".  c #010101",
"X  c #020202",
"o  c gray1",
"O  c #040404",
"+  c gray2",
"@  c #060606",
"#  c #070707",
"$  c gray3",
"%  c #090909",
"&  c gray4",
"*  c #0B0B0B",
"=  c #0C0C0C",
"-  c gray5",
";  c #0E0E0E",
":  c gray6",
">  c #101010",
",  c #111111",
"<  c gray7",
"1  c #131313",
"2  c gray8",
"3  c #151515",
"4  c #161616",
"5  c gray9",
"6  c #181818",
"7  c #191919",
"8  c gray10",
"9  c #1B1B1B",
"0  c gray11",
"q  c #1D1D1D",
"w  c #1E1E1E",
"e  c gray12",
"r  c #202020",
"t  c gray13",
"y  c #222222",
"u  c #232323",
"i  c gray14",
"p  c #252525",
"a  c gray15",
"s  c #272727",
"d  c #282828",
"f  c gray16",
"g  c #2A2A2A",
"h  c gray17",
"j  c #2C2C2C",
"k  c #2D2D2D",
"l  c gray18",
"z  c #2F2F2F",
"x  c gray19",
"c  c #313131",
"v  c #323232",
"b  c gray20",
"n  c #343434",
"m  c #353535",
"M  c gray21",
"N  c #373737",
"B  c gray22",
"V  c #393939",
"C  c #3A3A3A",
"Z  c gray23",
"A  c #3C3C3C",
"S  c gray24",
"D  c #3E3E3E",
"F  c #3F3F3F",
"G  c gray25",
"H  c #414141",
"J  c gray26",
"K  c #434343",
"L  c #444444",
"P  c gray27",
"I  c #464646",
"U  c gray28",
"Y  c #484848",
"T  c #494949",
"R  c gray29",
"E  c #4B4B4B",
"W  c #4C4C4C",
"Q  c gray30",
"!  c #4E4E4E",
"~  c gray31",
"^  c #505050",
"/  c #515151",
"(  c gray32",
")  c #535353",
"_  c gray33",
"`  c #555555",
"'  c #565656",
"]  c gray34",
"[  c #585858",
"{  c gray35",
"}  c #5A5A5A",
"|  c #5B5B5B",
" . c gray36",
".. c #5D5D5D",
"X. c gray37",
"o. c #5F5F5F",
"O. c #606060",
"+. c gray38",
"@. c #626262",
"#. c gray39",
"$. c #646464",
"%. c #656565",
"&. c gray40",
"*. c #676767",
"=. c #686868",
"-. c DimGray",
";. c #6A6A6A",
":. c gray42",
">. c #6C6C6C",
",. c #6D6D6D",
"<. c gray43",
"1. c #6F6F6F",
"2. c gray44",
"3. c #717171",
"4. c #727272",
"5. c gray45",
"6. c #747474",
"7. c gray46",
"8. c #767676",
"9. c #777777",
"0. c gray47",
"q. c #797979",
"w. c gray48",
"e. c #7B7B7B",
"r. c #7C7C7C",
"t. c gray49",
"y. c #7E7E7E",
"u. c gray50",
"i. c #808080",
"p. c #818181",
"a. c gray51",
"s. c #838383",
"d. c #848484",
"f. c gray52",
"g. c #868686",
"h. c gray53",
"j. c #888888",
"k. c #898989",
"l. c gray54",
"z. c #8B8B8B",
"x. c gray55",
"c. c #8D8D8D",
"v. c #8E8E8E",
"b. c gray56",
"n. c #909090",
"m. c gray57",
"M. c #929292",
"N. c #939393",
"B. c gray58",
"V. c #959595",
"C. c gray59",
"Z. c #979797",
"A. c #989898",
"S. c gray60",
"D. c #9A9A9A",
"F. c #9B9B9B",
"G. c gray61",
"H. c #9D9D9D",
"J. c gray62",
"K. c #9F9F9F",
"L. c #A0A0A0",
"P. c gray63",
"I. c #A2A2A2",
"U. c gray64",
"Y. c #A4A4A4",
"T. c #A5A5A5",
"R. c gray65",
"E. c #A7A7A7",
"W. c gray66",
"Q. c #A9A9A9",
"!. c #AAAAAA",
"~. c gray67",
"^. c #ACACAC",
"/. c gray68",
"(. c #AEAEAE",
"). c #AFAFAF",
"_. c gray69",
"`. c #B1B1B1",
"'. c #B2B2B2",
"]. c gray70",
"[. c #B4B4B4",
"{. c gray71",
"}. c #B6B6B6",
"|. c #B7B7B7",
" X c gray72",
".X c #B9B9B9",
"XX c gray73",
"oX c #BBBBBB",
"OX c #BCBCBC",
"+X c gray74",
"@X c gray",
"#X c gray75",
"$X c #C0C0C0",
"%X c #C1C1C1",
"&X c gray76",
"*X c #C3C3C3",
"=X c gray77",
"-X c #C5C5C5",
";X c #C6C6C6",
":X c gray78",
">X c #C8C8C8",
",X c gray79",
"<X c #CACACA",
"1X c #CBCBCB",
"2X c gray80",
"3X c #CDCDCD",
"4X c #CECECE",
"5X c gray81",
"6X c #D0D0D0",
"7X c gray82",
"8X c #D2D2D2",
"9X c LightGray",
"0X c gray83",
"qX c #D5D5D5",
"wX c gray84",
"eX c #D7D7D7",
"rX c #D8D8D8",
"tX c gray85",
"yX c #DADADA",
"uX c gray86",
"iX c gainsboro",
"pX c #DDDDDD",
"aX c gray87",
"sX c #DFDFDF",
"dX c gray88",
"fX c #E1E1E1",
"gX c #E2E2E2",
"hX c gray89",
"jX c #E4E4E4",
"kX c gray90",
"lX c #E6E6E6",
"zX c #E7E7E7",
"xX c gray91",
"cX c #E9E9E9",
"vX c #EAEAEA",
"bX c gray92",
"nX c #ECECEC",
"mX c gray93",
"MX c #EEEEEE",
"NX c #EFEFEF",
"BX c gray94",
"VX c #F1F1F1",
"CX c gray95",
"ZX c #F3F3F3",
"AX c #F4F4F4",
"SX c gray96",
"DX c #F6F6F6",
"FX c gray97",
"GX c #F8F8F8",
"HX c #F9F9F9",
"JX c gray98",
"KX c #FBFBFB",
"LX c gray99",
"PX c #FDFDFD",
"IX c #FEFEFE",
"UX c white",
/* pixels */
"#     .             X X   . &   O     =     +                   ",
"      O X   X X   . X   O     O   $       =   *                 ",
"  . X                   # $   + .   o O                         ",
"  .     @ * % $ %   % t J 4.N.N.z.q.V 0 =     @                 ",
"X +     O     X X V i.7XkX:X@X].@X;XaX:X=.w %   . . .           ",
"O +           d n.iX,X7.^ ..3.1.:.` O.c.wX^.a & X X . .         ",
"      @ % & R ).rX..^ l.$XuX2X8X7XzX*X;.*.7X&Xw X X X .         ",
". X       # 2.UXU.s L.yXw.` D K A O.K.AXv.o.wXS.o X X . .       ",
"  O   X +   7 p.kXB.L C 9.[.4XsX1XA.H q.nXq.v.jXB   #     O   X ",
"  #     * +   7 q.lXT.[.dXB.>.J 4.6X_.d |.-X+.vXo.X O     X     ",
"  #     . +     @ o.bX XN -   X   %.lXH B.qXH kXt.%     . .     ",
"      X     o & @   n u   *   % @ j.lXD F.5X..aX,.X       . X   ",
"@     $ @         @ % 8 r 6 g K G.CXc.c 6XM.1.bXF           @   ",
"+         X X   O @ D.eX3XxXuXiX9X*.v  XsX! W.&X5   # .     O   ",
"  O o       O + X   F *.+.X.' ` Z 6.tX3XR f.KX) @   +   O       ",
"        # .       > #./.`.U.).&XyXeXk.U M.NX<.= X       #     X ",
"  O @             5 U.hXD.Z.c.9.W C <.&XuX%.t <   %     X   X   ",
"X         . o + @   ].fX2.7.#.W s _ 4XAX=.a ;X%.o     .     X   ",
"X     o           & h.1X;X1XtXyX9X1.) :X,Xx  X=Xw   + o   o   . ",
"    O @     .     $ , < r * t n h.NXK.^ jX0.U ZX/   + X   o   o ",
". .       + $   X > K q O     : . w.pX/ [.oXs aXp.      . X   + ",
". O     @ #     o o.rX3X) & -      .mX~ m.7XN 0Xh.O     +     + ",
"  +     *     t 1.xXR.^.BXE. .X.5.yX XZ 7XT.x cX#.  X   @     X ",
"  $     o   q 8.sXc.C V ' /.tX4X6Xk.C d.cX! e.hXZ   @   @   O   ",
"o     o   + <.UXI.e E.dXk.$.n H V @.T.mX2.H 6XT.+ o .         . ",
"  .   o .   V D.zXj.J ;.;XfX3XtX5XgX~.~ o.5X+Xr O o .         . ",
"  O o   X   # f :.hX9Xa.] ) :.X.,.E #.H.pX|.c   o X .         . ",
"  O     o .     : k a.6XaX1X%X=X$XrXdX|.+.1   & X .             ",
"        o o   o o     : J >.2.c.f.%.m i #   @   .               ",
"X     X X     @   & .   o     @ o X     . O   X                 ",
"o     o               O   . %       #     #   .                 ",
"O     .   . X   o   # .       @ #     @     +                   "
};
