/* XPM */
static char *_e00c40b46f74c98c77424b214e05523zp4UlXZZOKGqTGsK[] = {
/* columns rows colors chars-per-pixel */
"32 32 171 2 ",
"   c #5B324C",
".  c #594E7C",
"X  c #5C517A",
"o  c #635474",
"O  c #6B5A71",
"+  c #7B6469",
"@  c #7F6D77",
"#  c #7C6C7B",
"$  c #A62C29",
"%  c #A93130",
"&  c #B2504C",
"*  c #A65253",
"=  c #BB5854",
"-  c #95765E",
";  c #845C69",
":  c #866C64",
">  c #876A6A",
",  c #8D7264",
"<  c #87716D",
"1  c #8A726B",
"2  c #927561",
"3  c #997964",
"4  c #9D7D6B",
"5  c #846F72",
"6  c #856C7B",
"7  c #847072",
"8  c #A07C62",
"9  c #A17C77",
"0  c #C88D72",
"q  c #CF9476",
"w  c #D49C7F",
"e  c #36378C",
"r  c #3C3C8A",
"t  c #2A3296",
"y  c #293499",
"u  c #303592",
"i  c #1E2FA6",
"p  c #1C2FA9",
"a  c #1C31AC",
"s  c #202EA1",
"d  c #413D94",
"f  c #42449F",
"g  c #675A98",
"h  c #6C678E",
"j  c #6F698C",
"k  c #736782",
"l  c #746985",
"z  c #786B81",
"x  c #736A89",
"c  c #6A6795",
"v  c #64649A",
"b  c #4044A2",
"n  c #545EAB",
"m  c #585EA8",
"M  c #4F5DB5",
"N  c #4D5DBB",
"B  c #515FB6",
"V  c #5C61A4",
"C  c #5962AD",
"Z  c #5260BC",
"A  c #3F57C8",
"S  c #3E58CC",
"D  c #3957D6",
"F  c #3B5AD6",
"G  c #3C5BDB",
"H  c #3C5FE3",
"J  c #395FE9",
"K  c #3C60E5",
"L  c #3B61EC",
"P  c #3D65F4",
"I  c #3D68F7",
"U  c #3763F8",
"Y  c #3C67F9",
"T  c #3E68F8",
"R  c #455AC4",
"E  c #4A5EC5",
"W  c #435CCD",
"Q  c #435ED2",
"!  c #415FDD",
"~  c #4C60C5",
"^  c #4662D8",
"/  c #4361E0",
"(  c #4165EA",
")  c #556FE9",
"_  c #446BF5",
"`  c #466CF4",
"'  c #436CF8",
"]  c #4B72F6",
"[  c #4770F8",
"{  c #4C73F8",
"}  c #5475F3",
"|  c #5579F6",
" . c #5A7AF4",
".. c #5A7BF5",
"X. c #657AE6",
"o. c #807087",
"O. c #8E7999",
"+. c #A27D94",
"@. c #7F81D9",
"#. c #5C80F7",
"$. c #7D88EA",
"%. c #6A85F4",
"&. c #6382F8",
"*. c #728CF7",
"=. c #7D94F9",
"-. c #AA8A84",
";. c #A68289",
":. c #B68789",
">. c #AB879A",
",. c #B9999C",
"<. c #8283BE",
"1. c #9284B9",
"2. c #BFA3BB",
"3. c #C68A8A",
"4. c #C69A8E",
"5. c #DF9A8A",
"6. c #C49A93",
"7. c #D99B9E",
"8. c #EAAD9A",
"9. c #CFA4A6",
"0. c #D6AFA2",
"q. c #CBA7BC",
"w. c #CCA8B8",
"e. c #DBACB7",
"r. c #E2BBAB",
"t. c #EFC2B4",
"y. c #F4C9B9",
"u. c #FCD5BD",
"i. c #9491CD",
"p. c #928CD2",
"a. c #8B94DE",
"s. c #9C96DC",
"d. c #A38FC0",
"f. c #A49BC9",
"g. c #B59DD1",
"h. c #B8A4DB",
"j. c #8A99EC",
"k. c #9793E2",
"l. c #9994E1",
"z. c #8298F8",
"x. c #AA9FE1",
"c. c #9CAAF7",
"v. c #A3ABF1",
"b. c #B7BCF6",
"n. c #D1AEC4",
"m. c #DAAEC1",
"M. c #D4AFD1",
"N. c #D7BAD5",
"B. c #E3BAC4",
"V. c #E3BCCB",
"C. c #BCC1F7",
"Z. c #DDC2DF",
"A. c #EAC2C4",
"S. c #EECEC7",
"D. c #F4CDC1",
"F. c #F9D1C0",
"G. c #E7C8D5",
"H. c #EACDD4",
"J. c #E9D1DC",
"K. c #DBC6E4",
"L. c #E4CBE4",
"P. c #E9CEE3",
"I. c #EDD5E9",
"U. c #F2D8E6",
"Y. c #F3DCEC",
"T. c #F4DEF0",
"R. c #F6E1ED",
"E. c #F8E4EF",
"W. c #F9E5F2",
"Q. c #FDECF6",
"!. c #FFF0F6",
/* pixels */
"- - - - - - - - - - - 2 2 2 2 2 2 - - - - - - - - - - - - - - - ",
"- - - - - - - - - - 2 h v v v v # - - - - - - - - - - - - - - - ",
"- - - - - - - - , j c ^ ^ ^ G ! B c k - - - - - - - - - - - - - ",
"- - - - - - 2 , c W G L ] ' ' ' K F R k , o X X o : - - - - - - ",
"- - - - - - 1 c ^ L P [ ' T [ ' U | j.<.X y y y u X : - - - - - ",
"- - - - - 1 c R H L L ] T U %.z.=.j.i.p.y i a a i t . : - - - - ",
"- - - - - @ V M N N F %.*.*.c.b.b.i.g g f a a a p s r + - - - - ",
"- - - - - < l l l h W v.C.C.z...X.1.:.:.;.b a a t r o , - - - - ",
"- - - - 2 x N R R R ( ..&.&.` K @.n.t.m.e.>.d e O + , - - - - - ",
"- - - - z E K L L L P T I / ! a.N.A.D.V.J.S.:.> - - - - - - - - ",
"- - - - , v F D D F G G F f.N.O.;.D.y.9.6 H.w 8 - - - - - - - - ",
"- - - - - 1 # # z o.d.>.2.S.;.  +.8.= *   ; 0 8 - - - - - - - - ",
"- - - - - - 2 2 2 3 -.9.t.F.0.6.r.5.% & 6.4.q 8 - - - - - - - - ",
"- - - - - - - - - - 4 q.V.F.u.A.B.3.$ = B.B.9.4 - - - - - - - - ",
"- - - - - - - - - - 3 q.L.G.B.H.U.V.7.e.P.P.n.4 - - - - - - - - ",
"- - - - - - - - - - 3 w.R.I.J.Y.Q.Q.Q.W.W.W.n.4 - - - - - - - - ",
"- - - - - - - - 2 2 x p.K.T.Q.!.Q.Q.Q.Q.E.H.,.4 - - - - - - - - ",
"- - - - - - - - , x Q ( h.Y.Q.Q.Q.Q.Q.Q.E.N.-.3 - - - - - - - - ",
"- - - - - - - - 5 W P ' k.L.W.Q.!.Q.Q.Q.W.W.n.9 - - - - - - - - ",
"- - - - - - - - 5 A P T ' l.L.Q.!.Q.Q.Q.Y.U.w.4 - - - - - - - - ",
"- - - - - - - - # W P I | ' l.U.Q.Q.Q.T.M.2.4 - - - - - - - - - ",
"- - - - - - - @ R } ' ' T Y s.P.Q.W.Q.T.g.~ 1 - - - - - - - - - ",
"- - - - - - - # W ' Y P T T [ k.P.I.Z.I.g.N 1 - - - - - - - - - ",
"- - - - - - - # A P T T T T | | k.x.$.h.) R < 2 - - - - - - - - ",
"- - - - - - - # S P ' | ' { #.....} ` ..P K n < - - - - - - - - ",
"- - - - - - - # S P T ' ' ' | | ' P P Y _ ] W 7 - - - - - - - - ",
"- - - , 2 2 5 n D P T T ' T [ ' Y ` { T _ ` R 5 2 - - - - - - - ",
"- - 2 # # @ C G J P T T [ ' T T T ' [ T T P H v 1 - - - - - - - ",
"- - 6 N N M H P T T T T { ' T T T T T T I I L R @ - - - - - - - ",
"- 3 l E G G H H K K K H K H J H H H H J K K ! C < - - - - - - - ",
"- - 2 # n n n n n n n n n n n n n n n n C n V < - - - - - - - - ",
"- - 2 2 2 2 2 2 2 2 2 2 2 2 2 2 2 2 2 2 2 2 - - - - - - - - - - "
};
