/* XPM */
static char *a30fd3e9a6434522d022f59e1f3a83cb8ceNGAgBX3LopR0q[] = {
/* columns rows colors chars-per-pixel */
"32 32 146 2 ",
"   c None",
".  c #6E5967",
"X  c #6D5D6B",
"o  c #705967",
"O  c #745C69",
"+  c #7C5E6B",
"@  c #6B616F",
"#  c #70606E",
"$  c #7C606C",
"%  c #656676",
"&  c #6B6473",
"*  c #6E6977",
"=  c #656A79",
"-  c #6A6C7B",
";  c #736371",
":  c #7D6673",
">  c #776875",
",  c #7D6975",
"<  c #726E7C",
"1  c #7F6B78",
"2  c #6F717F",
"3  c #75727F",
"4  c #79727E",
"5  c #815F6D",
"6  c #84616E",
"7  c #8A646F",
"8  c #856671",
"9  c #8C6571",
"0  c #846C76",
"q  c #8B6A74",
"w  c #836E79",
"e  c #896E79",
"r  c #916672",
"t  c #986774",
"y  c #946B75",
"u  c #9C6B76",
"i  c #936F78",
"p  c #8A747C",
"a  c #907076",
"s  c #94747A",
"d  c #9B757B",
"f  c #9D7A7D",
"g  c #A16A77",
"h  c #A56D78",
"j  c #AB6F7A",
"k  c #A47279",
"l  c #AB757B",
"z  c #A27B7F",
"x  c #AD7B7D",
"c  c #B07D7F",
"v  c #6F7887",
"b  c #6D7C8A",
"n  c #737481",
"m  c #757986",
"M  c #797D88",
"N  c #A47E81",
"B  c #A97F82",
"V  c #B37D81",
"C  c #C27D80",
"Z  c #7B8B96",
"A  c #7B8D99",
"S  c #A48282",
"D  c #AA8283",
"F  c #A38987",
"G  c #AF8B87",
"H  c #A38C8A",
"J  c #B18687",
"K  c #BF8685",
"L  c #B18887",
"P  c #B98789",
"I  c #B48A89",
"U  c #BB8D8B",
"Y  c #B3928C",
"T  c #BB928C",
"R  c #B29490",
"E  c #B39A93",
"W  c #B39E98",
"Q  c #C78082",
"!  c #CC8D8A",
"~  c #D08786",
"^  c #DB8B8A",
"/  c #C2918D",
"(  c #D2938D",
")  c #C59591",
"_  c #C69D92",
"`  c #CB9F93",
"'  c #DA9991",
"]  c #E19E94",
"[  c #CFA496",
"{  c #DEA598",
"}  c #D7AE9F",
"|  c #DBAE9E",
" . c #E5A196",
".. c #E8A397",
"X. c #E7A599",
"o. c #E9A598",
"O. c #EEA89A",
"+. c #E1B19F",
"@. c #DDB5A5",
"#. c #E1B2A0",
"$. c #E3B5A1",
"%. c #E6B7A2",
"&. c #E6B7A2",
"*. c #EFB3A0",
"=. c #EAB8A3",
"-. c #ECBCA6",
";. c #F4B6A2",
":. c #F7BBA5",
">. c #F6BBA6",
",. c #F6BCA6",
"<. c #F0BFA7",
"1. c #F9BDA7",
"2. c #F8BDA7",
"3. c #F3C3AA",
"4. c #F5C3AA",
"5. c #F5C4AA",
"6. c #F6C5AC",
"7. c #F9C4AB",
"8. c #F8C6AB",
"9. c #F8C7AC",
"0. c #FAC7AC",
"q. c #FCC7AD",
"w. c #F7C9AE",
"e. c #FAC8AD",
"r. c #FBCBAF",
"t. c #FCCBAE",
"y. c #FCCBAF",
"u. c #FCCCAF",
"i. c #FECCAF",
"p. c #FCCBAE",
"a. c #F6CBB0",
"s. c #F6CDB3",
"d. c #F6CFB4",
"f. c #F6CDB2",
"g. c #FBCCB0",
"h. c #FBCDB2",
"j. c #F8CEB3",
"k. c #FBCEB2",
"l. c #FBCFB2",
"z. c #FCCDB0",
"x. c #F7D1B6",
"c. c #F7D2B7",
"v. c #FBD0B3",
"b. c #FBD1B4",
"n. c #FBD2B5",
"m. c #FCD1B5",
/* pixels */
"            G s d I Y E E E G q S Y Y E E W Y s d D             ",
"      s R } 3._ _ t.t.v.v.n.8.G +.z.z.z.v.v.v._ _ 5.} Y s       ",
"    D @.x.t.1./ U :.>.1.,.,.O.D { 4.,.,.,.,.:./ / 4.u.v.@.D     ",
"  q | n.7.O.^ j t l l j l l k 8 u k l l l l l r j ^ O.7.v.| a   ",
"  T 7.0.O.Q 7 + 9 u u u u u 8 X % . r u g u u 7 + 7 Q O.8.8.T   ",
"f =.i.;.~ 5 O 5 9 r r r r 9 + X = . $ $ + 6 $ + o . 6 ~ ;.t.=.f ",
"S 4.t...u + u l P J P P P V 9 X 2 . y z D D S D k y + u ..0.5.S ",
"8 T T c + + 7 u s N N d N N 9 X 2 O y f f z f z f 7 + $ c T Y q ",
"f +.+.( 8 - * s I U I U U U J 1 - s L U I P I I s > - 8 ( &.#.f ",
"H x.z.O.q m m f / ) ) ) ) ) ) p n N ) ) ) ) ) ) d m m q X.i.x.H ",
"H x.u.X.r q f B G G G J L L B 0 m q D L L L G G D s q r X.t.s.H ",
"F w.i.X.7 O $ $ + $ $ + + + + ; M q N N N B N N N N d r X.e.w.H ",
"S 8.u.o.r u h h h h h h h h u : m N ) ) ) ) ) ) ) ) U d X.i.8.S ",
"a ` [ K 7 r u u u t u u u u r : n q B B D D D D D D k 9 K [ [ a ",
"a ` [ K 7 d D D D D D D D D N : = q B D D D D D D D d 7 K [ _ a ",
"H f.u.X.u T ) ) ) ) ) ) ) U B , & w J ) ) ) ) ) ) ) T u X.i.w.H ",
"H d.g.X.r i N N N N N N N i v A n Z 0 z N N N N N N s t X.e.d.H ",
"F f.q.o.9 . + 5 + + + 5 + O - H n A w B J J J J J L N y X.g.f.F ",
"D w.g.o.8 5 h j h h j j j t < A n A N J ) ) ) ) ) ) U u X.z.9.S ",
"s +.&.( 7 + r i t t y y t 6 < A n A > 0 s i i i p s q 9 ( &.#.d ",
"q Y T c 9 B U U I I U I I N < A n A > 5 7 7 7 7 7 7 O $ c T T q ",
"S a.e. .u J ) T ) T T ) ) B 4 Z n A , u j j h V j h 6 7  .t.w.S ",
"H x.t.o.r i N N N N N N N q < Z n Z , 9 i u i i y y 8 9 X.t.c.H ",
"H s.t.X.9 w w B I U U I U V e n = n N P U U U U D s p q X.e.f.H ",
"S w.u...q b v s ) ) ) ) ) ) P 0 - d / ) ) ) ) / s b b q X.t.w.S ",
"f 3.5.] 7 @ ; a D D D S D D N , 2 s D D D D D D s ; & 9 ] 4.3.N ",
"8 L Y x 5 r u u t u u u t t 8 X - q D D D D D D D D d 8 x Y L 8 ",
"f 3.3.' r y h h h h h h h h 6 @ - f ) ) ) ) ) ) ) ) U u ' 3.-.f ",
"H n.t.o.7 O $ $ : + + + + : O X - 8 d N f f f f f k s r X.i.x.H ",
"S 9.q.] u z L L L L L L L J D : = X + 6 6 6 6 6 6 5 O 7  .0.5.S ",
"y ! ( C 9 B I J I I L I L J D 0 % o 9 u u u u u u u + 5 C ( ! y ",
"o o O O o O O O O O O O O O O o . . o O O O O O O O o o O O O X "
};
