/* XPM */
static char *f7b4bbb8c0b5475cb8497a51a872f61dPkCmx6ipFDMcGcT2[] = {
/* columns rows colors chars-per-pixel */
"32 32 109 2 ",
"   c #22231E",
".  c #2C261C",
"X  c #2F291F",
"o  c #372919",
"O  c #3B2A19",
"+  c #192222",
"@  c #1F2929",
"#  c #222724",
"$  c #292A24",
"%  c #222A2A",
"&  c #332D23",
"*  c #3D3123",
"=  c #2B3333",
"-  c #343C3C",
";  c #493623",
":  c #493A29",
">  c #523A2A",
",  c #453930",
"<  c #483D33",
"1  c #403F3B",
"2  c #59432D",
"3  c #43433D",
"4  c #564532",
"5  c #5B4733",
"6  c #5B4938",
"7  c #5F503E",
"8  c #624734",
"9  c #634934",
"0  c #654F3A",
"q  c #695037",
"w  c #67543F",
"e  c #6C523A",
"r  c #71533D",
"t  c #74583F",
"y  c #354040",
"u  c #3A4343",
"i  c #3D4949",
"p  c #474540",
"a  c #4B4B45",
"s  c #434C4C",
"d  c #4B4F4B",
"f  c #524B42",
"g  c #46504E",
"h  c #4D514E",
"j  c #5A5345",
"k  c #53534E",
"l  c #445353",
"z  c #4A5656",
"x  c #4C5B5B",
"c  c #515652",
"v  c #595650",
"b  c #535954",
"n  c #5B5B54",
"m  c #505E5E",
"M  c #5B5F59",
"N  c #625543",
"B  c #695646",
"V  c #6C5847",
"C  c #64574B",
"Z  c #735640",
"A  c #755A42",
"S  c #7C5E45",
"D  c #645D53",
"F  c #53615F",
"G  c #5C6059",
"H  c #7C6047",
"J  c #636056",
"K  c #6E6255",
"L  c #686358",
"P  c #736456",
"I  c #7E6651",
"U  c #726759",
"Y  c #756658",
"T  c #73695B",
"R  c #716A5E",
"E  c #7A6858",
"W  c #7B6958",
"Q  c #7D6958",
"!  c #7C6B5A",
"~  c #4F6060",
"^  c #506161",
"/  c #516262",
"(  c #526262",
")  c #526363",
"_  c #636760",
"`  c #816148",
"'  c #826148",
"]  c #84654A",
"[  c #85644B",
"{  c #85654B",
"}  c #86684C",
"|  c #886C4E",
" . c #806852",
".. c #836E50",
"X. c #846E50",
"o. c #886A54",
"O. c #826C5A",
"+. c #8A7057",
"@. c #8D7254",
"#. c #8F735D",
"$. c #8F775E",
"%. c #907758",
"&. c #90745D",
"*. c #92755E",
"=. c #94755E",
"-. c #95765E",
";. c #91785A",
":. c #998068",
">. c #9C846B",
/* pixels */
"-.-.-.-.-.-.-.-.-.-.-.-.-.-.-.-.-.-.-.-.-.-.-.-.-.-.-.-.-.-.-.-.",
"-.-.-.-.-.-.-.-.-.-.-.-.-.-.-.-.-.-.-.-.-.-.-.-.-.-.-.-.-.-.-.-.",
"-.-.-.-.-.-.-.-.-.-.-.*.-.-.-.-.-.-.-.-.-.-.-.-.-.-.-.-.-.-.-.-.",
"-.-.-.-.-.-.-.-.-.-.-.-.-.-.-.P D D D D D -.-.-.-.-.-.-.-.-.-.-.",
"-.-.-.-.-.-.W D D B e o.-.P J l c x x c l N B -.-.-.-.-.-.-.-.-.",
"-.-.-.-.W D M x a V  .A C s z z x ) ) ) < I  .B C D -.;.-.-.-.-.",
"-.-.-.Q b x ~ ) f  .:.B 3 s z z x ~ ) ) > -.>.> x m D D -.-.-.-.",
"-.-.-.K x ) ) ) f S ;.q 3 s z x x x ) ) > *.-.> ) ) m z D -.-.-.",
"-.-.-.P l x ) ) a A ..9 6 7 N N N N N N > o.[ > ) ) ) z h *.-.-.",
"-.-.W c l l z x f Z [ 8 r +.$.$.$.$.;.' > [ [ > ) x l d O.-.=.=.",
"*.W c x x x l i < r [ 8 A @.%.;.;.;.%.[ > [ ' > l g s d -.-.-.-.",
"-.P z ) x ) z i < r [ 8 f b a a c b b k > ' [ > l s s x n -.-.-.",
"-.Y z ) ) ) l u < r [ 8 1 p - u u u i l > ' [ > l l m m c D -.-.",
"-.#.R ) ) ) g u < r Z 5 - u = - u u u i > ' e > g u ) ) x c -.-.",
"-.-.U x ) x i u < r t 2 1 - = - y u u u : [ e > u u ) ) m c *.-.",
"-.-.P s s l i - , 9 e 2 Z  .} X...I | H > e e > u u x ) m c -.-.",
"-.Y g z x z i = * 2 e ; 5 S [ [ } } ] e O e e O = - x ~ F c -.-.",
"-.Y i x ) ~ i = & 2 q ; 2 S [ [ ] ] [ e O q q O = = x x s k -.-.",
"-.-.T ~ ) ) u @ X 2 e ; $ % # % = = = % O q q O = % s s h *.-.-.",
"-.-.T x ) ) i % X 2 e ; $ % @ @ # % % % O q q o # % c -.%.-.-.-.",
"-.-.P z ) F - @ X 2 q ;   + @ + + + + % o q e O + % d -.-.-.-.-.",
"-.-.P g l z l = . 2 q ;   + + + + + + + o q q o + x s l *.-.-.-.",
"-.-.*.P s g l = . 2 q ; . @ # # # # # # o q e o % ) ) h k -.-.-.",
"-.-.-.*.K s x ) 3 4 e ; 5 S ' ' H ' H e O q w * ) ) ) ) z -.-.-.",
"-.-.-.#.D l F ) ) x j : 6 w N w B w w w * 0 x ) ) ) ) x n -.-.-.",
"-.-.-.P s z ) ) ) ) z s s x x ) ~ ) ) ) z s m ) ) ) m M -.-.-.-.",
"-.-.-.Y g z F ~ ) ) z s l ~ ~ ~ ) ) ) ) x s s z ) x v =.-.-.-.-.",
"-.-.-.-.Y z z x x x c c v x ) ) ) ) ) ~ z v c k b v *.-.-.-.-.-.",
"-.-.-.-.-.Q G n v c O.-.-.L M L ) F F b v *.-.-.-.-.-.-.-.-.-.-.",
"-.-.-.-.-.-.-.-.-.-.-.-.-.-.*.-.K n D $.-.-.-.-.-.-.-.-.-.-.-.-.",
"-.-.-.-.-.-.-.-.-.-.-.-.-.-.-.-.-.-.*.-.-.-.-.-.-.-.-.-.-.-.-.-.",
"-.-.-.-.-.-.-.-.-.-.-.-.-.-.-.-.-.-.-.-.-.-.-.-.-.-.-.-.-.-.-.-."
};
