/* XPM */
static char *result[] = {
/* columns rows colors chars-per-pixel */
"32 32 208 2 ",
"   c black",
".  c #020000",
"X  c #030000",
"o  c #040000",
"O  c #050000",
"+  c #070000",
"@  c #090000",
"#  c #0B0101",
"$  c #0D0101",
"%  c #0F0000",
"&  c #130000",
"*  c #130202",
"=  c #150202",
"-  c #160202",
";  c #1B0000",
":  c #1F0000",
">  c #1D0303",
",  c #200000",
"<  c #230000",
"1  c #200303",
"2  c #210303",
"3  c #240404",
"4  c #260404",
"5  c #2A0000",
"6  c #2E0000",
"7  c #290404",
"8  c #2A0404",
"9  c #310000",
"0  c #310505",
"q  c #3B0000",
"w  c #380202",
"e  c #3D0000",
"r  c #3B0606",
"t  c #3F0606",
"y  c #400000",
"u  c #410000",
"i  c #470000",
"p  c #430606",
"a  c #440707",
"s  c #470707",
"d  c #4A0707",
"f  c #4F0808",
"g  c #550000",
"h  c #5B0000",
"j  c #530808",
"k  c #570808",
"l  c #580808",
"z  c #5C0909",
"x  c #5F0909",
"c  c #600000",
"v  c #660000",
"b  c #640303",
"n  c #6A0000",
"m  c #6B0A0A",
"M  c #770000",
"N  c #7D0000",
"B  c #7F0000",
"V  c #700B0B",
"C  c #720A0A",
"Z  c #760B0B",
"A  c #790C0C",
"S  c #7A0C0C",
"D  c #7F0C0C",
"F  c #840000",
"G  c #890000",
"H  c #810C0C",
"J  c #860D0D",
"K  c #870D0D",
"L  c #880D0D",
"P  c #8B0E0E",
"I  c #8D0E0E",
"U  c #8F0E0E",
"Y  c #960000",
"T  c #9B0000",
"R  c #920E0E",
"E  c #960E0E",
"W  c #9C0F0F",
"Q  c #A10000",
"!  c #A90000",
"~  c #AF0000",
"^  c #B00000",
"/  c #B70000",
"(  c #BA0000",
")  c #B80F0F",
"_  c #BC0F0F",
"`  c #BE0E0E",
"'  c #BF0E0E",
"]  c #A61010",
"[  c #A81010",
"{  c #A91010",
"}  c #A91111",
"|  c #AA1010",
" . c #AD1111",
".. c #AF1111",
"X. c #B01111",
"o. c #B11111",
"O. c #B31010",
"+. c #B21111",
"@. c #B31111",
"#. c #B31212",
"$. c #B41010",
"%. c #B41111",
"&. c #B51111",
"*. c #B41212",
"=. c #B81111",
"-. c #C40000",
";. c #C90000",
":. c #CC0000",
">. c #CF0000",
",. c #CA0707",
"<. c #C10D0D",
"1. c #C20D0D",
"2. c #C00E0E",
"3. c #C20E0E",
"4. c #C40C0C",
"5. c #C60C0C",
"6. c #C70C0C",
"7. c #C80C0C",
"8. c #D20000",
"9. c #DA0707",
"0. c #DE0707",
"q. c #D10A0A",
"w. c #D60909",
"e. c #D90808",
"r. c #DA0808",
"t. c #DB0808",
"y. c #E10000",
"u. c #E50000",
"i. c #E70000",
"p. c #E00707",
"a. c #E90000",
"s. c #EC0000",
"d. c #EF0000",
"f. c #E80505",
"g. c #F10000",
"h. c #F30000",
"j. c #F00303",
"k. c #F10303",
"l. c #F20303",
"z. c #F40000",
"x. c #F70000",
"c. c #F40202",
"v. c #F50202",
"b. c #F40303",
"n. c #F60202",
"m. c #F80000",
"M. c #F90000",
"N. c #FA0000",
"B. c #FB0000",
"V. c #FB0101",
"C. c #F80202",
"Z. c #FD0000",
"A. c #FC0101",
"S. c #FD0101",
"D. c #FE0000",
"F. c red",
"G. c #FF0101",
"H. c #FF0202",
"J. c #FF0303",
"K. c #FF0606",
"L. c #FF0707",
"P. c #FF0808",
"I. c #FF0909",
"U. c #FF0A0A",
"Y. c #FF0D0D",
"T. c #FF0E0E",
"R. c #FF1010",
"E. c #FF1515",
"W. c #FF1717",
"Q. c #FF1D1D",
"!. c #FF1F1F",
"~. c #FF2727",
"^. c #FF2828",
"/. c #FF2A2A",
"(. c #FF2B2B",
"). c #FF2C2C",
"_. c #FF3C3C",
"`. c #FF3F3F",
"'. c #FF4141",
"]. c #FF4343",
"[. c #FF4747",
"{. c #FF4848",
"}. c #FF5B5B",
"|. c #FF6767",
" X c #FF7A7A",
".X c #FF7C7C",
"XX c #FF8989",
"oX c #FF8A8A",
"OX c #FF8E8E",
"+X c #FF9393",
"@X c #FF9797",
"#X c #FF9A9A",
"$X c #FF9F9F",
"%X c #FFA5A5",
"&X c #FFACAC",
"*X c #FFBFBF",
"=X c #FFCCCC",
"-X c #FFCDCD",
";X c #FFCFCF",
":X c #FFD0D0",
">X c #FFE5E5",
",X c #FFE7E7",
"<X c #FFE8E8",
"1X c #FFEBEB",
"2X c #FFEFEF",
"3X c #FFFEFE",
"4X c white",
"5X c None",
/* pixels */
"5X5X5X5X5X                5X5X5X5X5X5X                5X5X5X5X5X",
"5X5X5X5X5X8 w u y y y u q 5X5X5X5X5X5Xq u y y y y y e 5X5X5X5X5X",
"5X5X5X  # P 9.m.x.x.x.B.( @ 5X5X5X5X@ ( B.x.x.x.x.N.;.%   5X5X5X",
"5X5Xr m C ,.b.F.F.F.F.F.i.Y <     < Y i.F.F.F.F.F.F.s.Q T g 5X5X",
"5X* z =.3.b.F.F.F.F.F.F.F.g.i , , i g.F.F.F.F.F.W.E.F.F.F.F ; 5X",
"X V [ 2.c.D.F.F.F.F.F.F.F.Z.a.u.u.a.Z.F.F.F.F.G.#XXXF.F.F.z.Q o ",
"X S *.1.A.F.F.F.F.F.F.F.F.F.F.F.F.F.F.F.F.F.F.H.&X=X}.L.F.F.~ o ",
"X A #.1.V.F.F.F.F.F.F.F.F.F.F.F.F.F.F.F.F.F.F.G.$X4X:XR.F.F.~ o ",
"X A #.1.V.F.F.F.F.F.F.F.F.F.F.F.F.F.F.F.F.F.F.F.Q.oX;XR.F.F.~ o ",
"X A #.1.V.F.F.F.F.F.F.F.F.F.F.F.F.F.F.F.F.F.F.F.).@X;XR.F.F.~ o ",
"X A #.1.V.F.F.F.F.F.F.F.F.F.F.F.F.F.F.F.F.F.F.H.%X4X-XR.F.F.~ o ",
"X A #.1.A.F.F.F.F.F.F.F.F.F.F.F.F.F.F.F.F.F.T.OX,X*X[.K.F.F.~ o ",
"X A @.' j.Z.F.F.F.F.F.F.F.F.F.F.F.F.F.F.F.U.`.>X1X XF.F.F.F.~ o ",
"X S &.+._ l.F.F.F.F.F.F.F.F.F.F.F.F.F.F.F.'.<X3X|.P.F.F.F.F.^ o ",
"X s H +.@.q.j.F.F.F.F.F.F.F.F.F.F.F.F.F.F.{.2X+X/.F.F.F.F.( v o ",
"5X  d { X.X.t.S.F.F.F.F.F.F.F.F.F.F.F.F.F.].;X!.F.F.F.D.h.n   5X",
"5X5X- t  .+.) w.F.F.F.F.F.F.F.F.F.F.F.F.F.Y.^.K.F.F.F.M.h : 5X5X",
"5X5X5X1 Z ] X.1.f.A.F.F.F.F.F.F.F.F.J.'.(.F.F.F.F.F.d.! 6 5X5X5X",
"5X5X5X5X$ I +.o._ n.F.F.F.F.F.F.F.F.I.*X.XF.F.F.F.F.:.& 5X5X5X5X",
"5X5X5X5X5X0 D %.$.7.k.F.F.F.F.F.F.F.J._.~.F.F.F.F./ i 5X5X5X5X5X",
"5X5X5X5X5X  l W o.o.0.C.F.F.F.F.F.F.F.F.F.F.F.F.y.B   5X5X5X5X5X",
"5X5X5X5X5X5XO p +.o.@.r.F.F.F.F.F.F.F.F.F.F.F.F.c + 5X5X5X5X5X5X",
"5X5X5X5X5X5X5X7 x [ o.1.p.D.F.F.F.F.F.F.F.F.h.G q 5X5X5X5X5X5X5X",
"5X5X5X5X5X5X5X5X- R  .X.1.n.D.F.F.F.F.F.F.N.8., 5X5X5X5X5X5X5X5X",
"5X5X5X5X5X5X5X5X5X> L &.O.<.v.F.F.F.F.F.F.-.5 5X5X5X5X5X5X5X5X5X",
"5X5X5X5X5X5X5X5X5X. k U +.$.e.v.F.F.F.F.>.N X 5X5X5X5X5X5X5X5X5X",
"5X5X5X5X5X5X5X5X5X5X  j X.o.o.p.D.Z.Z.Z.M   5X5X5X5X5X5X5X5X5X5X",
"5X5X5X5X5X5X5X5X5X5X5X2 f ..+.` 5.6.4.b 9 5X5X5X5X5X5X5X5X5X5X5X",
"5X5X5X5X5X5X5X5X5X5X5X5X4 K | o.X.} J 3 5X5X5X5X5X5X5X5X5X5X5X5X",
"5X5X5X5X5X5X5X5X5X5X5X5X5X= E %.%.E = 5X5X5X5X5X5X5X5X5X5X5X5X5X",
"5X5X5X5X5X5X5X5X5X5X5X5X5X5Xa d d a 5X5X5X5X5X5X5X5X5X5X5X5X5X5X",
"5X5X5X5X5X5X5X5X5X5X5X5X5X5X        5X5X5X5X5X5X5X5X5X5X5X5X5X5X"
};