/* XPM */
static char *result[] = {
/* columns rows colors chars-per-pixel */
"32 32 198 2 ",
"   c black",
".  c #020202",
"X  c gray1",
"o  c #040303",
"O  c #040404",
"+  c #060505",
"@  c #060606",
"#  c #090909",
"$  c #0C0C0C",
"%  c gray5",
"&  c #0E0E0E",
"*  c gray6",
"=  c #111111",
"-  c #131313",
";  c #151515",
":  c #161515",
">  c gray9",
",  c #181818",
"<  c #191818",
"1  c #191919",
"2  c #1A1919",
"3  c #1F1E1E",
"4  c #1E1F1F",
"5  c gray13",
"6  c #222222",
"7  c #232323",
"8  c #252424",
"9  c #262525",
"0  c gray15",
"q  c #272727",
"w  c #282727",
"e  c #282828",
"r  c #2A2929",
"t  c #2B2A2A",
"y  c #2F2E2E",
"u  c #2F2F2F",
"i  c #313030",
"p  c #323030",
"a  c #323131",
"s  c #333131",
"d  c #323232",
"f  c gray20",
"g  c #343333",
"h  c #353535",
"j  c gray21",
"k  c #373737",
"l  c gray22",
"z  c #393939",
"x  c #3B3939",
"c  c #3C3C3C",
"v  c #434343",
"b  c #444242",
"n  c #474545",
"m  c #464646",
"M  c #4B4B4B",
"N  c #4C4A4A",
"B  c #515151",
"V  c #535151",
"C  c #535353",
"Z  c #545252",
"A  c #555353",
"S  c gray33",
"D  c #565656",
"F  c #585656",
"G  c #5A5A5A",
"H  c gray36",
"J  c #5D5D5D",
"K  c #5F5F5F",
"L  c gray39",
"P  c #676767",
"I  c #6A6767",
"U  c DimGray",
"Y  c #6B6868",
"T  c #6A6A6A",
"R  c #6E6A6A",
"E  c #726F6F",
"W  c #767272",
"Q  c #747474",
"!  c gray47",
"~  c gray48",
"^  c #7E7A7A",
"/  c #7C7C7C",
"(  c gray49",
")  c gray50",
"_  c #807C7C",
"`  c #808080",
"'  c gray51",
"]  c #848080",
"[  c #848484",
"{  c gray52",
"}  c #868686",
"|  c gray53",
" . c #8B8787",
".. c #888888",
"X. c #898989",
"o. c gray54",
"O. c #8A8B8B",
"+. c #8B8B8B",
"@. c #8D8989",
"#. c #8F8B8B",
"$. c gray55",
"%. c #8D8D8D",
"&. c #8F8E8E",
"*. c gray56",
"=. c #908C8C",
"-. c #909090",
";. c #929191",
":. c #939292",
">. c #939393",
",. c #949393",
"<. c #969494",
"1. c #989494",
"2. c #999494",
"3. c #9A9898",
"4. c #9A9999",
"5. c #9B9999",
"6. c #A09E9E",
"7. c #A3A1A1",
"8. c #A4A0A0",
"9. c #A6A1A1",
"0. c #A6A3A3",
"q. c #A6A4A4",
"w. c #A9A4A4",
"e. c #A9A6A6",
"r. c #ACA7A7",
"t. c #ABA8A8",
"y. c #AEAAAA",
"u. c #AFAAAA",
"i. c #B0ACAC",
"p. c #B7B2B2",
"a. c #B7B3B3",
"s. c #B8B2B2",
"d. c #B9B4B4",
"f. c #BAB4B4",
"g. c #BCB7B7",
"h. c #BDB8B8",
"j. c #BDB9B9",
"k. c #BEB9B9",
"l. c #BFB9B9",
"z. c #BFBABA",
"x. c #C1BBBB",
"c. c #C1BCBC",
"v. c #C2BDBD",
"b. c #C3BEBE",
"n. c #C4BEBE",
"m. c #C4BFBF",
"M. c #C6C0C0",
"N. c #C6C1C1",
"B. c #C7C2C2",
"V. c #C8C2C2",
"C. c #C9C3C3",
"Z. c #C9C4C4",
"A. c #CAC4C4",
"S. c #CBC5C5",
"D. c #CBC6C6",
"F. c #CCC6C6",
"G. c #CDC7C7",
"H. c #CEC8C8",
"J. c #CFC8C8",
"K. c #CFC9C9",
"L. c #D0C9C9",
"P. c #D0CACA",
"I. c #D1CACA",
"U. c #D0CBCB",
"Y. c #D1CBCB",
"T. c #D2CCCC",
"R. c #D3CDCD",
"E. c #D3CECE",
"W. c #D4CECE",
"Q. c #D4CFCF",
"!. c #D5CFCF",
"~. c #D6D1D1",
"^. c #D7D1D1",
"/. c #D7D2D2",
"(. c #D8D3D3",
"). c #DAD5D5",
"_. c #DBD6D6",
"`. c #DDD9D9",
"'. c #E1DDDD",
"]. c #E4E0E0",
"[. c #E7E4E4",
"{. c #E8E5E5",
"}. c #E9E6E6",
"|. c #EAE7E7",
" X c #EBE8E8",
".X c #EBE9E9",
"XX c #ECE9E9",
"oX c #EDEAEA",
"OX c #EEECEC",
"+X c #F1EFEF",
"@X c #F4F2F2",
"#X c #F6F5F5",
"$X c #F7F6F6",
"%X c #F9F8F8",
"&X c #FAF9F9",
"*X c #FCFBFB",
"=X c white",
"-X c None",
/* pixels */
"-X-X-X-X-X                -X-X-X-X-X-X                -X-X-X-X-X",
"-X-X-X-X-X4 t g g g g g i -X-X-X-X-X-Xy g g g g g g p -X-X-X-X-X",
"-X-X-X  . H 0.Z.C.C.C.S.8.& -X-X-X-XX @.F.C.C.C.C.S.9.&   -X-X-X",
"-X-X6 B C <.v.P.K.K.K.P.x._ 9     ; W p.Y.K.K.K.K.P.x.] ^ n -X-X",
"-X% k X.>.z.Y.K.K.K.K.K.P.A.b < 2 a h.Y.K.K.K.K.E.E.P.T.!.R : -X",
"  m ) *.c.G.K.K.K.K.K.K.K.H.l.d.f.g.G.K.K.K.K.K. X|.H.K.K.N.] O ",
"  M X.-.V.P.K.K.K.K.K.K.K.K.P.P.P.P.K.K.K.K.K.K.OX#X'.Y.K.R.#.O ",
"  M X.-.B.L.K.K.K.K.K.K.K.K.K.K.K.K.K.K.K.K.K.K..X=X$XR.K.T.#.O ",
"  M X.-.B.L.K.K.K.K.K.K.K.K.K.K.K.K.K.K.K.K.K.K.Q.{.$XR.K.T.#.O ",
"  M X.-.B.L.K.K.K.K.K.K.K.K.K.K.K.K.K.K.K.K.K.K./. X$XR.K.T.#.O ",
"  M X.-.B.L.K.K.K.K.K.K.K.K.K.K.K.K.K.K.K.K.K.K.oX=X#XR.K.T.#.O ",
"  M X.-.V.P.K.K.K.K.K.K.K.K.K.K.K.K.K.K.K.K.Y.}.&X@X`.P.K.T.#.O ",
"  M X.&.h.F.K.K.K.K.K.K.K.K.K.K.K.K.K.K.K.Y.).%X*X[.H.K.K.T.#.O ",
"  M +...%.h.Y.K.K.K.K.K.K.K.K.K.K.K.K.K.H.).&X=X].Y.K.K.K.W.=.O ",
"-Xu G | ..6.j.P.K.K.K.K.K.K.K.K.K.K.K.K.H._.*XXX(.H.K.K.Y.1.V o ",
"-X  e ( } { q.F.K.K.K.K.K.K.K.K.K.K.K.K.H.).#X~.H.K.K.H.M.F   -X",
"-X-X-X0 ( ..$.7.H.K.K.K.K.K.K.K.K.K.K.H.H.Y.^.U.K.K.P.S.N 1 -X-X",
"-X-X-X* S ~ | ;.a.D.K.K.K.K.K.K.K.K.K._.(.K.J.K.K.P.b. .w -X-X-X",
"-X-X-X-XO K ..| %.b.K.K.K.K.K.K.K.K.P.+X}.H.K.K.K.P.w.= -X-X-X-X",
"-X-X-X-X-X7 D X.X.3.k.P.K.K.K.K.K.K.K.)./.K.K.K.R.2.x -X-X-X-X-X",
"-X-X-X-X-X  k Q } } t.B.K.K.K.K.K.K.K.H.J.K.K.K.s.Y   -X-X-X-X-X",
"-X-X-X-X-X-XO q [ ....q.P.K.K.K.K.K.K.K.K.K.K.Y.Z @ -X-X-X-X-X-X",
"-X-X-X-X-X-X-X, v / | :.i.G.K.K.K.K.K.K.K.P.B.E s -X-X-X-X-X-X-X",
"-X-X-X-X-X-X-X-X# P [ } ;.m.H.K.K.K.K.K.K.S.u.3 -X-X-X-X-X-X-X-X",
"-X-X-X-X-X-X-X-X-X- J O.X.,.v.P.K.K.K.K.R.9.8 -X-X-X-X-X-X-X-X-X",
"-X-X-X-X-X-X-X-X-X  c U | ..e.n.P.K.K.I.r.I + -X-X-X-X-X-X-X-X-X",
"-X-X-X-X-X-X-X-X-X-X  f { | } y.H.G.G.H.Y   -X-X-X-X-X-X-X-X-X-X",
"-X-X-X-X-X-X-X-X-X-X-X> j ' ..;.5.5.4.A r -X-X-X-X-X-X-X-X-X-X-X",
"-X-X-X-X-X-X-X-X-X-X-X-X; L ` | } ' U 5 -X-X-X-X-X-X-X-X-X-X-X-X",
"-X-X-X-X-X-X-X-X-X-X-X-X-X$ T o.X.! ; -X-X-X-X-X-X-X-X-X-X-X-X-X",
"-X-X-X-X-X-X-X-X-X-X-X-X-X-Xd z l h -X-X-X-X-X-X-X-X-X-X-X-X-X-X",
"-X-X-X-X-X-X-X-X-X-X-X-X-X-X        -X-X-X-X-X-X-X-X-X-X-X-X-X-X"
};