/* XPM */
static char *c02196b6ea6740b2e8ddf255b1832852dej3Oj0HMf4zNwZ3[] = {
/* columns rows colors chars-per-pixel */
"32 32 210 2 ",
"   c None",
".  c #000002",
"X  c #00020A",
"o  c #090706",
"O  c #130000",
"+  c #1A0001",
"@  c #1E000A",
"#  c #1A0E09",
"$  c #051207",
"%  c #000017",
"&  c #120D10",
"*  c #230201",
"=  c #260007",
"-  c #360002",
";  c #3C0000",
":  c #261806",
">  c #371706",
",  c #2F0013",
"<  c #331F14",
"1  c #3C2D03",
"2  c #3D2B1A",
"3  c #00002E",
"4  c #000024",
"5  c #021E27",
"6  c #1E2221",
"7  c #440002",
"8  c #4B0000",
"9  c #530000",
"0  c #5B0001",
"q  c #590C08",
"w  c #451605",
"e  c #5E1A03",
"r  c #551A06",
"t  c #450012",
"y  c #540018",
"u  c #640001",
"i  c #6D0000",
"p  c #680900",
"a  c #780000",
"s  c #661900",
"d  c #412B02",
"f  c #4C2605",
"g  c #562C07",
"h  c #593617",
"j  c #4D3B06",
"k  c #6D2D06",
"l  c #622204",
"z  c #722E02",
"x  c #6D3402",
"c  c #6D370C",
"v  c #753301",
"b  c #743907",
"n  c #783906",
"m  c #633B1B",
"M  c #773611",
"N  c #543D24",
"B  c #6C3A2A",
"V  c #504D00",
"C  c #664903",
"Z  c #774705",
"A  c #755504",
"S  c #5D5231",
"D  c #5B4024",
"F  c #764A26",
"G  c #614F3C",
"H  c #6C4F37",
"J  c #747034",
"K  c #111247",
"L  c #201346",
"P  c #26346A",
"I  c #4B535C",
"U  c #786A52",
"Y  c #414F6A",
"T  c #8B0000",
"R  c #910000",
"E  c #961409",
"W  c #A30000",
"Q  c #B70000",
"!  c #BC1E13",
"~  c #883A00",
"^  c #9C2900",
"/  c #A9201E",
"(  c #DC0200",
")  c #D91200",
"_  c #E30F04",
"`  c #D72D2A",
"'  c #E83029",
"]  c #8C4100",
"[  c #824D04",
"{  c #824600",
"}  c #914A01",
"|  c #914204",
" . c #8A5404",
".. c #985502",
"X. c #804F1F",
"o. c #885F1B",
"O. c #965B19",
"+. c #A05900",
"@. c #A05C1F",
"#. c #9A770A",
"$. c #9C6210",
"%. c #9B7111",
"&. c #A46B07",
"*. c #A37B0A",
"=. c #A87707",
"-. c #B07D0C",
";. c #AA7114",
":. c #875A29",
">. c #815938",
",. c #955426",
"<. c #97672C",
"1. c #9F6F39",
"2. c #96762D",
"3. c #A46427",
"4. c #B5773C",
"5. c #A66F34",
"6. c #9F6D47",
"7. c #A77B57",
"8. c #C77E7E",
"9. c #9E8532",
"0. c #B58128",
"q. c #AB9130",
"w. c #B88D38",
"e. c #C09000",
"r. c #C9A300",
"t. c #D2A532",
"y. c #F8C828",
"u. c #AD804D",
"i. c #B98246",
"p. c #B19741",
"a. c #B88A58",
"s. c #AB9245",
"d. c #BAA044",
"f. c #B49572",
"g. c #AC8B6F",
"h. c #BDAE7F",
"j. c #CF8641",
"k. c #C48C54",
"l. c #CB9259",
"z. c #CF9846",
"x. c #CFAC47",
"c. c #E8BD41",
"v. c #D49C65",
"b. c #CE9B6D",
"n. c #DCA16A",
"m. c #D2A278",
"M. c #E5AC75",
"N. c #E8B07D",
"B. c #E2A269",
"V. c #EDC14A",
"C. c #EBC043",
"Z. c #F3C949",
"A. c #F5D070",
"S. c #00009E",
"D. c #1144B6",
"F. c #7C5CA4",
"G. c #5667B8",
"H. c #002AFF",
"J. c #3954E0",
"K. c #5774D0",
"L. c #637ED8",
"P. c #4E5FFF",
"I. c #5872E6",
"U. c #7381B1",
"Y. c #7788DD",
"T. c #6381DD",
"R. c #7998FF",
"E. c #9F9F8B",
"W. c #929091",
"Q. c #B09E83",
"!. c #AF9C98",
"~. c #BDA190",
"^. c #A5A494",
"/. c #A99CAB",
"(. c #9EAEB2",
"). c #A5ADB1",
"_. c #B1B9BC",
"`. c #D79D9C",
"'. c #D6AB84",
"]. c #D5AE8A",
"[. c #DFB18B",
"{. c #C7AB96",
"}. c #E8B789",
"|. c #F8BF8B",
" X c #DABFBF",
".X c #EECC8E",
"XX c #FCC695",
"oX c #FFC997",
"OX c #FECC9C",
"+X c #FFD09E",
"@X c #D4CCBA",
"#X c #FECEA2",
"$X c #F7CDA8",
"%X c #FFD1A2",
"&X c #FDD6AB",
"*X c #E1D7BC",
"=X c #FFE7B6",
"-X c #8295E5",
";X c #95A6E0",
":X c #A1A4FF",
">X c #ABB6FE",
",X c #B8B8F5",
"<X c #C3BEC1",
"1X c #B9C9D2",
"2X c #DED2CD",
"3X c #C3CAD3",
"4X c #E8D4CA",
"5X c #F3DCCB",
"6X c #FBEFCC",
"7X c #DAE4EA",
/* pixels */
"                        . d I G 1 1 * .                         ",
"                      j <.y.6XA.e.0.| x w                       ",
"                    $.3.x.x.r.A Z ; 9 Z n l                     ",
"                  3 s q . 2.s.p.p.d.9.; . O X                   ",
"                .  .~.3X.Xy.V.C.C.c.Z.t.z.q.e .                 ",
"            X u A.5XA.!.f. .s z k p $.2.0.0.=.0.k .             ",
"          % u V.x.g.Z 7 8 , @ O @ = = 9 9 0 Z [ -.z .           ",
"          0 c.t.0 0 t 6 2 # . n . . : > $ r u 0 Z -.c           ",
"        . *.$.u q & : . b g v l.k.. r c . o o e u [ #..         ",
"        #.&.0 . X . X . n . i.#XOXk.X c n . o . s u &.#.        ",
"        $.A . w . > * F >.2 XX#X+X+X4.& @.m . w $ 7  .0.        ",
"        r x r r . g n >.x ; v.OXOXv.7 . u.:.. e , d *.C         ",
"          g l . . h B 8 ~.1X'.oXoX'.3XW.u H X $ u j A           ",
"              # . . | {.*XW.$X#X+X#X!._.{.l . . >               ",
"              . G [.T 4X).. }.#X#X}.. (.5X; [.G                 ",
"                D l.} M.5X7X&XOXOX$X7X5XM.g a.D                 ",
"                O O.4...}.&X%XOX%XXXa.,.| 7.+.+                 ",
"                  . f M ..M.oXoXXXXXN...z f .                   ",
"                    . w x 9 o.~ | o.8 F h O                     ",
"                  f v n.a.. R ).).p y F j.m .                   ",
"                  . ..B.U W ' `.`.) E d ~ o.'.1..               ",
"                = a.M.[ 8 ` _ 2X@X( / i g.7.l.|.b .             ",
"                > B.&Xf.i ' ` 8.8.` ! a a.1.m.&X7.O             ",
"                + 3.k.F 4 ^ ( 2X2XQ E 5 . $.oXv.} .             ",
"                  . 3 . K.D.L Y P K G.L.    7....               ",
"                      . ;X:XI.R.P.I.H.-XJ   o .                 ",
"                      J.>X@XE.T.L.U.>X,XE.                      ",
"                      S.F.&.@XV . -X*XQ.                        ",
"                        z.=XC       :.b.                        ",
"                      B ~ l.6..   4 7.k..                       ",
"                      e 5.3.| > o } v.N.+.w                     ",
"                        ;.O.+     ; 1.4.8                       "
};
