/* XPM */
static char *dad85abf777a4739c476694fe9bb27bfHd4cj5SVlkTJ17eA[] = {
/* columns rows colors chars-per-pixel */
"32 32 86 1 ",
"  c black",
". c #070102",
"X c #060504",
"o c #0A0103",
"O c #100C0A",
"+ c #111111",
"@ c #26060B",
"# c #27060B",
"$ c #2E070E",
"% c #3A0911",
"& c #3C0911",
"* c #3E0E14",
"= c #3F0E15",
"- c #341416",
"; c #31251D",
": c #362B22",
"> c #3D3026",
", c #400A13",
"< c #410C13",
"1 c #430A14",
"2 c #470B15",
"3 c #440E15",
"4 c #480B15",
"5 c #4C0C17",
"6 c #4A0F18",
"7 c #500C18",
"8 c #411117",
"9 c #421317",
"0 c #431318",
"q c #45161A",
"w c #47191C",
"e c #4B191D",
"r c #4E1B1E",
"t c #620F1D",
"y c #6A101F",
"u c #4B1D20",
"i c #511C20",
"p c #561D21",
"a c #661521",
"s c #6A1220",
"d c #6D1120",
"f c #6E1120",
"g c #701321",
"h c #731323",
"j c #751222",
"k c #791324",
"l c #7A1324",
"z c #7C1324",
"x c #7D1325",
"c c #4F2222",
"v c #502323",
"b c #502424",
"n c #522725",
"m c #552B28",
"M c #5A2928",
"N c #592F2B",
"B c #42342A",
"V c #46372C",
"C c #5C312E",
"Z c #653C35",
"A c #653D35",
"S c #801426",
"D c #811426",
"F c #831427",
"G c #841527",
"H c #8B162A",
"J c #91182C",
"K c #95182D",
"L c #94192D",
"P c #99192E",
"I c #9C1A2F",
"U c #9D1A30",
"Y c #A11B31",
"T c #84624F",
"R c #856351",
"E c #896854",
"W c #8C6B57",
"Q c #886C56",
"! c #8E6D57",
"~ c #8D7059",
"^ c #91715B",
"/ c #95765E",
"( c #E4E4E4",
") c #E9E9E9",
"_ c #F9F9F9",
"` c #FEFEFE",
/* pixels */
"////////////////////////////////",
"////////////////////////////////",
"////////////////////////////////",
"///////////nwwwwww//////////////",
"//////////ngJLLLJLq/////////////",
"/////////bfPYY5,49Lq////////////",
"////////bhPYY5o. o&Lq///////////",
"////////cjIY5o    o,Pq//////////",
"///////bhSIY2.     &U*//////////",
"///////chSSI2.(+  _&U*//////////",
"///////ch2jI2.)+  `&U*//////////",
"///////bh4jI4.     &x*//////////",
"////////c*hSI2o    1x9//////////",
"//////////chxS1.o %l0///////////",
"//////////!e,lS211G<!///////////",
"/////////!rlGGYYYYYG3!//////////",
"/////////ujUYYYYYYYYx1//////////",
"/////////ulUYYYYYYYYF*//////////",
"////////EiJYYYYYYYYYU*//////////",
"////////cjUYYYYYUYYYU6R/////////",
"////////uhUYYYYUSUYYYx9/////////",
"////////chUYYYYUjPYYIz9/////////",
"///////RpjKYUUUG&xPYSz9/////////",
"///////vhSxKHLFd$dSPSx0/////////",
"///////uhhxxLDd$ %Dxdx0/////////",
"///////Za2jdDD1. #sF5sN/////////",
"////////A*tMsy%;: %ysC//////////",
"/////////ANW-#m^/:#NC///////////",
"////////////BXQ/// /////////////",
"/////////////OQ/// /////////////",
"/////////////V~///>/////////////",
"////////////////////////////////"
};
