/* XPM */
static char *_aa3afa5fa4948bec690949fe2ec9390rr0oCGLbyHtHNj81[] = {
/* columns rows colors chars-per-pixel */
"32 32 54 1 ",
"  c #542F18",
". c #59361D",
"X c #5D391F",
"o c #5D3B22",
"O c #613D23",
"+ c #644126",
"@ c #64452A",
"# c #69462A",
"$ c #6A4B2E",
"% c #6B4E31",
"& c #714E31",
"* c #6D5233",
"= c #6C523B",
"- c #725435",
"; c #725837",
": c #735639",
"> c #755A3B",
", c #795C3D",
"< c #7B603F",
"1 c #765A40",
"2 c #7A5E41",
"3 c #7D6242",
"4 c #7B624C",
"5 c #7D6551",
"6 c #7E6854",
"7 c #806343",
"8 c #806344",
"9 c #836544",
"0 c #826646",
"q c #846746",
"w c #866947",
"e c #846748",
"r c #836949",
"t c #846B4A",
"y c #876B4A",
"u c #886C4B",
"i c #886D4C",
"p c #896E4C",
"a c #8B714E",
"s c #8A704F",
"d c #8B734F",
"f c #8C734F",
"g c #8C7250",
"h c #8D7450",
"j c #8C7452",
"k c #81715E",
"l c #907753",
"z c #927A57",
"x c #957E59",
"c c #947F5C",
"v c #867967",
"b c #8E7E6B",
"n c #968470",
"m c #9A8A76",
/* pixels */
":::o#%%%&%&%*&&&%%&%%%%%%%#O=1=o",
"m54>riisffflhfzhhhhhpliiiit,,rnO",
"222+####&-:-:>>,,::---%##@++221o",
"ztro2323&OO#$$#$$$$$OO-,82:OeruO",
"xiwX#280t2->339w8q8,-qute2#OetiO",
"xupO%##>tpw,&-,3,:,,iit,##-+ttzO",
"xsp#-,7--quffq--:qusft&&,,-#hul+",
"xss#,qwt0-qfzlpw8,il7&ququ3#ifz+",
"xfs#,wwppu,>,pzfhq,,,utttt7#plzO",
"xfs@,9wpqq,,3-9lllt,8tettt7$hlx#",
"xlf+-,,:-,0psp-$:ult8-:,,8>#hhcO",
"xllO&:-,ifsl9-,9,-8liuq:-,-Oslx#",
"xffO+$,tifp::9998,-,q8t3,$%OshzO",
"nffo-wwt,&$,w99wqqq,#&,q,2:Ohhzo",
";ur+O#$&+#&&&&&-&&&&&#+&##OOte1.",
">::o#%%%&%&%*&&&%%&%%%%%%%#O==:O",
"m54,tiupffflffzfhshhfluuiii,,5nO",
"222O####&-:->>>,,::---%##@+O221o",
"ztto2323&OO#$$#$$$%#OO-,q2:OqtiO",
"xiqo#27qt2->379q0e8,-8utq,#OqrgO",
"xiiO%##>tuw,&-,3,:,,iiu,##-+ttl+",
"xit$-,7--wiufw--:0iifp&&,,-#igl+",
"xpf#,qwuq-qhzliw8,ulq&qtqt3#shl+",
"xhp#,wwiii,>,izpfq,,,tuttt2#hlzO",
"xff+2qupuq,,3-9lllt,8ttttt8$flx#",
"xzhO-,,--,qphp-$:ult8-:,28>#fscO",
"xllO&:-,pphl8-,9,-7lut0:-,-Oslx#",
"xffOO$,uiii:>q998,-,q7t3,$$OhhzO",
"nhfO-eqt,&%,w99eqqq,#&,e,2:OshzO",
";tt+O#$&O#&&&&&-&&&&&#O&##OOrr1.",
"nt4,illlllllzlzzzlzzllzhhhe156b ",
"tkkO<itgsshshphhlfpfhhsshueO6v6O"
};
