/* XPM */
static char *_b83374cb9e54b4a9c1a3012d7f986fcxBuzv1Oak6o4PjWS[] = {
/* columns rows colors chars-per-pixel */
"32 32 114 2 ",
"   c #3F3953",
".  c #413A53",
"X  c #433F58",
"o  c #4A4057",
"O  c #45425B",
"+  c #4B4259",
"@  c #53465A",
"#  c #5B4A5E",
"$  c #4C4E65",
"%  c #4A4D69",
"&  c #5D4D60",
"*  c #4F5269",
"=  c #53556B",
"-  c #555A6E",
";  c #59586C",
":  c #5B5D71",
">  c #535E7A",
",  c #665363",
"<  c #6D5967",
"1  c #675D6E",
"2  c #6B5C6B",
"3  c #735B69",
"4  c #7D5D6C",
"5  c #625E70",
"6  c #57637C",
"7  c #7C626D",
"8  c #696071",
"9  c #7D6571",
"0  c #79707B",
"q  c #805F6D",
"w  c #83646F",
"e  c #866671",
"r  c #8A6370",
"t  c #846A74",
"y  c #8C6B74",
"u  c #936673",
"i  c #946B75",
"p  c #9B6975",
"a  c #947279",
"s  c #9B757B",
"d  c #9E7A7E",
"f  c #A46B77",
"g  c #A56D79",
"h  c #AB6F7A",
"j  c #AD707B",
"k  c #A17B7F",
"l  c #AC797F",
"z  c #5C6B82",
"x  c #5C6D88",
"c  c #5F728A",
"v  c #62768B",
"b  c #65788B",
"n  c #6B7C8D",
"m  c #667D95",
"M  c #9D7B80",
"N  c #A27D80",
"B  c #AC7A80",
"V  c #B67E83",
"C  c #6C8194",
"Z  c #6A859A",
"A  c #6E8B9E",
"S  c #738594",
"D  c #718B9D",
"F  c #788E9C",
"G  c #728EA1",
"H  c #7390A2",
"J  c #7B95A4",
"K  c #7D9AA9",
"L  c #9C8587",
"P  c #9B878A",
"I  c #858E96",
"U  c #A58485",
"Y  c #AB8284",
"T  c #A78789",
"R  c #A78888",
"E  c #A98D8D",
"W  c #B48586",
"Q  c #B98286",
"!  c #BB8688",
"~  c #B58A89",
"^  c #B98C8B",
"/  c #B6908E",
"(  c #BC918E",
")  c #AB9191",
"_  c #8095A2",
"`  c #819EAC",
"'  c #85A1AE",
"]  c #86A4B1",
"[  c #89A6B3",
"{  c #8CA9B5",
"}  c #8FACB7",
"|  c #91AFB8",
" . c #95B2BB",
".. c #99B7BD",
"X. c #9BB7BC",
"o. c #9CB9BF",
"O. c #C18F8D",
"+. c #C0938F",
"@. c #C3938F",
"#. c #C39390",
"$. c #C39592",
"%. c #C49490",
"&. c #C49590",
"*. c #C59591",
"=. c #C59691",
"-. c #C79792",
";. c #C59893",
":. c #C69893",
">. c #C69993",
",. c #C69A94",
"<. c #C79A95",
"1. c #C79B96",
"2. c #AECBCA",
"3. c #AFCCCA",
/* pixels */
"< < 3 r r i d k d d d k k d d w < < 3 r u i d d d d i u r 3 < < ",
"3 3 7 h j Q %.%.;.@.( ^ ! O.~ t 3 3 q f j Q @.@.@.$.Q j h q 3 < ",
"f g h j h Q %.%.@.@.@.-.1.@.@.a p h h j j Q @.@.@.@.Q j j h g r ",
"f g g g g B ^ ^ ^ ^ ^ ^ ^ ^ ^ i p g g f h l ^ / / ^ l g f g g r ",
"u u u u i s N u s N U R R U k s u u u u u s k y s N s u u u u r ",
"Q Q Q Q Q O.^ s ^ @.>.>.>.>.;.@.Q Q Q Q Q @.( s ^ %.%.^ Q Q Q Q ",
"$.$.,.$.;.^ U i ( @.@.@.@.@.@.@.$.$.;.@.@.@.~ i ^ %.%.%.%.;.%.%.",
"^ ^ ^ ^ ^ ^ ^ a Y ^ ^ ^ ^ / ^ / ^ ^ ^ / / ^ ^ i Y ^ ^ ^ ^ ^ ^ ^ ",
"s N U R ) E U k k U k k N N N y s U U R ) E U U k k N N N N N y ",
"@.%.%.;.1.,.;.>.%.%.@.$.%.%.%.d ^ ;.%.;.1.;.%.;.%.%.;.%.%.%.%.s ",
"%.%.%.%.%.%.@.@.@.@.@.^ @.~ N y a y U %.@.%.@.@.%.%.%.! @.~ N y ",
"~ ^ ^ ^ ^ ^ ^ ^ ^ ^ ^ ^ ( / Y 7 3 , 7 k ^ ^ ^ ^ ^ ^ ^ ~ / / Y y ",
"k N k U k k N y s N U R E E t @ , y t t d U k y s U U T E ) R d ",
"Q Q Q Q ! @.%.k ^ %.;.;.;.R 0 5 ; t B ~ @.( U y ^ ;.@.,.,.,.,.%.",
"g h j j j ! %.k ^ @.@.( d 2 I ' n = 7 ~ ;.;.( s ^ @.%.%.%.%.%.%.",
"3 4 p f f l ^ a Y ^ ^ d 1 $ - 8 - $ $ 9 W ^ ^ a B ^ / ^ ^ ^ ( ^ ",
"a s U U U N U k N d t 1 S _ F J F C z - 2 d U d d N s p r < 7 3 ",
"#.%.$.,.,.%.%.%.( N 1 S ..2..... .' D c : 9 ~ %.%.$.Q j j e 3 3 ",
"$.$.%.%.%.%.%.%.U 1 b ' 3.2. .| } [ K Z 6 + 7 ( %.$.Q j j j g r ",
"W ~ ^ ~ ^ ^ ^ ^ y * D [ o...} { { { K A 6   # W ^ ^ B g f g f r ",
"U U N N N N N y 3 = D [ { { { { { { K A z   @ e s N s u u u u r ",
",.;.%.O.^ #.~ i t = A ' { { { { { [ J A z   @ t ^ %.%.^ Q Q Q Q ",
"%.%.%.,.,.%.^ s t = m J ] { { { [ K H Z 6   # a ^ %.%.%.%.%.$.%.",
"^ ~ ^ ^ ^ ^ ^ s q O > m J ` ` ` K H Z x %   # y Y ^ ^ ^ ^ ^ ^ / ",
"d N U T ) E U N y # O 6 m A A D A Z x %   o 3 M N N N N N N N y ",
"%.%.,.%.,.,.%.;.@.d & O > c v v v z % . o 9 ~ @.%.%.%.%.%.%.%.d ",
"%.%.%.%.#.$.$.#.@.$.d # O O O X o X . o 7 ~ #.$.%.$.@.! @.~ N y ",
"~ ^ ^ ^ ^ ^ ^ ^ ^ ^ ~ a + .   . .   X < U ~ ^ ^ ^ ^ ^ ~ ^ / Y y ",
"k N N N N k k y s k U U L P L a a a a a N N N y s N Y T E ) R N ",
"Q Q Q Q ^ @.%.k ^ $.@.^ ! ! Q ! $.$.! ( @.( Y y ~ %.%.O.^ ^ ! Q ",
"h h h j j ! %.N ^ $.^ j j j h g @.$.%.$.,.,.( s ^ %.Q j h j h g ",
"3 q g j j V @.s W $.V j j f 4 w ^ %.$.%.#.$.%.s ~ %.V j j g 4 3 "
};
