/* XPM */
static char *_c68b54be9da4e00e2f0af224c16204afX0DAmPLU4nkzUjp[] = {
/* columns rows colors chars-per-pixel */
"32 32 210 2 ",
"   c #020202",
".  c #0D0D0D",
"X  c #241A1D",
"o  c #212100",
"O  c #3B2B0C",
"+  c #2B2222",
"@  c #312524",
"#  c #392B2A",
"$  c #562A09",
"%  c #502A0E",
"&  c #6B330B",
"*  c #505009",
"=  c #6E5507",
"-  c #71720C",
";  c #474748",
":  c #584248",
">  c #5A5A5A",
",  c #6C4E4F",
"<  c #795659",
"1  c #6E5967",
"2  c #775B67",
"3  c #735B69",
"4  c gray42",
"5  c #93460E",
"6  c #BE570F",
"7  c #A05010",
"8  c #BB5912",
"9  c #B06D16",
"0  c #B25C3F",
"q  c #CE580D",
"w  c #DC581D",
"e  c #FF5502",
"r  c #FE5B06",
"t  c #F2570F",
"y  c #F6590D",
"u  c #FB5C0B",
"i  c #EF5A15",
"p  c #EC5D1B",
"a  c #F35C14",
"s  c #F65E14",
"d  c #C96714",
"f  c #D76614",
"g  c #FF6007",
"h  c #FD620C",
"j  c #FF6A0E",
"k  c #E8671B",
"l  c #F56017",
"z  c #FA6312",
"x  c #FE6D11",
"c  c #F4621B",
"v  c #F56A1C",
"b  c #EF7517",
"n  c #F37417",
"m  c #FF7416",
"M  c #FF7A17",
"N  c #FD7718",
"B  c #FF7918",
"V  c #D75B29",
"C  c #D05F38",
"Z  c #E35D23",
"A  c #E45E25",
"S  c #DC642F",
"D  c #CB633C",
"F  c #D26134",
"G  c #D86537",
"H  c #D5633B",
"J  c #ED6423",
"K  c #EC6727",
"L  c #E1632A",
"P  c #EA652A",
"I  c #F16523",
"U  c #F06924",
"Y  c #E46A34",
"T  c #E66E39",
"R  c #E7703C",
"E  c #8F5749",
"W  c #AF5D49",
"Q  c #B86149",
"!  c #A66659",
"~  c #B66959",
"^  c #B9725E",
"/  c #805F6D",
"(  c #8C626E",
")  c #946466",
"_  c #9A666B",
"`  c #9C6C6D",
"'  c #8A6370",
"]  c #8C6A74",
"[  c #946673",
"{  c #936B74",
"}  c #986B73",
"|  c #957078",
" . c #9C767B",
".. c #9D7A7D",
"X. c #AA696C",
"o. c #AE6E6C",
"O. c #B77767",
"+. c #A76C75",
"@. c #A56D79",
"#. c #AB6F7A",
"$. c #B46E72",
"%. c #A27474",
"&. c #AA7A75",
"*. c #A97877",
"=. c #AD707B",
"-. c #A27B7D",
";. c #BC7E7D",
":. c #C25F42",
">. c #CD6243",
",. c #C76849",
"<. c #CC6D4B",
"1. c #D76642",
"2. c #DC7245",
"3. c #D4734D",
"4. c #DD754C",
"5. c #C56A55",
"6. c #C97659",
"7. c #D47757",
"8. c #DD7A53",
"9. c #DB7D5A",
"0. c #E1764A",
"q. c #C47A6F",
"w. c #CA7F6A",
"e. c #C07E78",
"r. c #B88F17",
"t. c #AFB00C",
"y. c #D09E02",
"u. c #D5871A",
"i. c #F1860D",
"p. c #F7861A",
"a. c #FF821A",
"s. c #FF8D1D",
"d. c #FF9A15",
"f. c #FF931E",
"g. c #EFBA13",
"h. c #FF9C21",
"j. c #FEAA21",
"k. c #F7B421",
"l. c #FFB426",
"z. c #FFBB24",
"x. c #DCDC01",
"c. c #FEC609",
"v. c #F3CE10",
"b. c #F8D713",
"n. c #FFDE11",
"m. c #E3E40E",
"M. c #FAE70B",
"N. c #FEF505",
"B. c #FFFD02",
"V. c #FFFD0A",
"C. c #FFE910",
"Z. c #FFFF16",
"A. c #FFFC1C",
"S. c #FFC221",
"D. c #FFFF2B",
"F. c #FFFF34",
"G. c #FFFF3D",
"H. c #AA817E",
"J. c #B8857B",
"K. c #BE867C",
"L. c #C8826C",
"P. c #D68164",
"I. c #D98160",
"U. c #D3846B",
"Y. c #C2837A",
"T. c #C1887D",
"R. c #CB8A7B",
"E. c #D18872",
"W. c #D0907E",
"Q. c #FFFF55",
"!. c #EEEF6C",
"~. c #FFFF64",
"^. c #A27E80",
"/. c #AD7980",
"(. c #B67E83",
"). c #A58385",
"_. c #AB8383",
"`. c #AF8983",
"'. c #A78888",
"]. c #A98B8B",
"[. c #B38686",
"{. c #BA8384",
"}. c #BD8A83",
"|. c #BB8688",
" X c #B38988",
".X c #B98C8B",
"XX c #AE908E",
"oX c #BE908D",
"OX c #AB9191",
"+X c #B1B191",
"@X c #A7A7A5",
"#X c #C28C86",
"$X c #CA8E81",
"%X c #C08F8D",
"&X c #C89187",
"*X c #C2928E",
"=X c #C5938D",
"-X c #C8958B",
";X c #C39491",
":X c #C49591",
">X c #C69994",
",X c #C99992",
"<X c #FFFF8A",
"1X c #FFFF9A",
"2X c #FAFAB7",
"3X c #F8F8CA",
"4X c gray88",
"5X c #FFFFEF",
"6X c #F8F8F1",
"7X c #FFFFFC",
/* pixels */
"1 1 3 ' _ X.^ A ^ ....&.Z y S ) < < 2 ' _ }  .-.*...| [ ' 3 1 1 ",
"3 3 / X.>.A T P.&X=X*X}.w.L.3.V w w W 5.1.q.&X9.0.$X(.=.#./ 3 3 ",
"@.+.$.1.i J 9.=X=X=X;X>X,X=XR.D t V H S 5.e.&X4.Y R.{.#.#.@.@.' ",
"~ >.S t A 5.}..X.X.X.X.X.X.XL.F i 5.>.Z o.&.}.4.Y L./.+.@.@.@.' ",
"Q V V V ~ %.^.[ ~ 6.O._.'.).5.r t C C :._  .&.Q A <.o.[ [ [ [ [ ",
"{.{.{.(.(.%X.X%.2.c I P.-X=X9.g j s 2.{.{..XT.,.u c 8.Y.(.|.{.(.",
";X;X>X;X;X;X^.{ }.4.s c P.R.0.h m z 4.=X:X:X{.,.r e s 9.=X;X;X:X",
".X.X.X.X.X.X.X| _.K.7.s c c l m m z 2.|..X.XK.D u x s 2.#X.X.X.X",
" .^.).'.OX].).^.^.^.&.5.a e r M m h H [.XXJ.<.p h m m J <.-.-.] ",
";X:X:X:X>X-X=X-X%X=X:X$Xc e h B m g U I.W.4.l g j m m h T R.=X..",
":X:X:X=XU.8.8.8.8.U.&XY.p u x M M x u K P.U r x m m j u R J.).] ",
"[..X}.w.P r y J s Y L.Y.a x N N M m x U 4.v x N m j h c 7.}._.] ",
"^.^.&.G J p G ! F a P 6.a x M N M M N x g x M N j r u <.`.OX'...",
"{.{.(.;.e.R.$X&.K.0.s s e x M N m M N x u m B x g e z 8.,X>X>X=X",
"@.#.=.$.$.{.:X^..X$X0.e e j M M M N M m m m m m m j z 4.$X,X;X;X",
"3 2 X.>.A <.}.| H.}.w.u j m M M N N M N M B B B m m h c 7.T..X.X",
"|  .&.5.k G &...-.^ S z m s.s.N M M N N b M M n n M j r p 0 ( 3 ",
"oX=X>X,XI.I.&X:X=X0.h x m h.j.h.s.a.B f 8 b n f q b m j r w E 1 ",
">X;X;X;X=X=X:X=XE.0.s u m h.l.l.l.h.p.9 % 6 b 5 $ f M M j p ,.) ",
" X.X.X.X.X.X.XK.Y T 2.s m h.l.z.l.z.k.9 % d b 5 $ f M M x u a W ",
").).-.^.-.-.-.{ V s v x N a.f.l.z.n.b.r.= u.p.7 & f M N m j u Q ",
">X>X;X*X%X*X X` P h x M N N f.z.S.C.N.x.t.g.j.u.f n N M M x s 6.",
";X=X;X>X>X=XoX+.P x M M M M f.S.C.N.B.B.Z.C.n.S.h.M M N M x u P.",
".X.X.X.X.X.X X%.L z N N M n d.b.N.B.V.D.Q.A.N.n.j.a.N N N m l 7.",
"..^.).'.OX].).-.,.v x x m d.v.B.B.V.F.<X2XG.N.n.j.a.M m m v L ! ",
"*X;X:X>X>X>X>X>X&X9.c u j c.B.B.V.F.1X5X3X~.A.n.z.d.i.m g U U...",
";X:X:X;X;X;X=X=X;X&X9.k q y.x.B.Z.1X7X7X7X3X!.A.M.g.i.j h G O.] ",
"[..X.X.X.X.X.X.X.X.X{.^ $ O 9 x.m.2X6X4X4X4X2X!.t.= 6 y T L.`.] ",
"^.^.^.^.-.^.-.] | ).). .+   o * - @X@X> > 4 @X+X* O E 6.J.XX'.-.",
"{.{.{.|.|.;X;X^..X:X:X[.< @     . ; ;     . ; ; + , &.%X}.|.|.|.",
"@.#.#.#.=.|.;X^..X:X|.#.+., +                 X , '.|.=.#.#.@.@.",
"3 2 @.=.#.(.*X .[.:X(.#.#.+.: X + @ @ + @ @ # : ^.oX(.#.=.@./ 3 "
};
