/* XPM */
static char *d9465ce2e38c43709ce11138eca1258eJUYZTJCqTSQi18hQ[] = {
/* columns rows colors chars-per-pixel */
"66 34 101 2 ",
"   c None",
".  c #3F3851",
"X  c #4D3753",
"o  c #543754",
"O  c #5C3755",
"+  c #5E3756",
"@  c #563A52",
"#  c #563B52",
"$  c #5D3E57",
"%  c #6D3757",
"&  c #653B52",
"*  c #613954",
"=  c #763758",
"-  c #4E4055",
";  c #544357",
":  c #574557",
">  c #5E4158",
",  c #5F495A",
"<  c #6F4557",
"1  c #634659",
"2  c #69415A",
"3  c #6B465B",
"4  c #614B5A",
"5  c #6F4859",
"6  c #70455B",
"7  c #71465B",
"8  c #754858",
"9  c #754959",
"0  c #71535F",
"q  c #7A5761",
"w  c #96395F",
"e  c #9A385F",
"r  c #B1385E",
"t  c #B9385F",
"y  c #A63461",
"u  c #A63561",
"i  c #B53363",
"p  c #B03462",
"a  c #B53561",
"s  c #CF3B5F",
"d  c #C63563",
"f  c #C73563",
"g  c #CA3761",
"h  c #C83662",
"j  c #C93762",
"k  c #C83663",
"l  c #CD3A60",
"z  c #BA4355",
"x  c #BD4355",
"c  c #BC4456",
"v  c #BF4858",
"b  c #BD4A5A",
"n  c #BF4B5A",
"m  c #B05F67",
"M  c #B76168",
"N  c #BB626B",
"B  c #A37473",
"V  c #AA7A76",
"C  c #C24355",
"Z  c #C54455",
"A  c #C64455",
"S  c #CC4455",
"D  c #CF4455",
"F  c #C94C5A",
"G  c #D14456",
"H  c #DD4656",
"J  c #D34258",
"K  c #D54259",
"L  c #D94159",
"P  c #DC4358",
"I  c #DC4458",
"U  c #E04656",
"Y  c #E04857",
"T  c #E14857",
"R  c #E14A58",
"E  c #DA666B",
"W  c #B9857B",
"Q  c #BF8A7E",
"!  c #C28C7F",
"~  c #D18679",
"^  c #BF9887",
"/  c #C89080",
"(  c #C89081",
")  c #CE9483",
"_  c #C19A89",
"`  c #C89E8B",
"'  c #DC9D88",
"]  c #CAA08C",
"[  c #CBA28D",
"{  c #CEA48E",
"}  c #D0A58E",
"|  c #D1A68F",
" . c #D5A991",
".. c #D7AB91",
"X. c #DDB094",
"o. c #E0B296",
"O. c #E3B497",
"+. c #E6B698",
"@. c #EED1AE",
"#. c #F6EACF",
"$. c #F6F5FA",
/* pixels */
"$.$.$.$.$.$.$.$.$.$.$.$.$.$.$.$.                                                                                                    ",
"$.. . . . . . . . . . . . . . . $.                                                                                                  ",
"$.. N ~ ~ ~ ~ ~ ~ ~ ~ ~ ~ ~ N . . $.                                                                                                ",
"$.. ~ ~ ~ ~ ~ ~ ~ ~ ~ ~ ~ ~ ~ N . . $.                                                                                              ",
"$.. N ~ ~ ~ ~ ~ ~ ~ ~ ~ ~ ~ ~ N . . $.                                                                                              ",
"  $.. N ~ ~ ~ ~ ~ ~ ~ ~ ~ N N . . . $.                                                                                              ",
"    $.. ~ ~ ~ ~ ~ ~ ~ N . . . . . . $.                                                                                              ",
"    $.. ~ ~ ~ ~ ~ ~ N . N . . . . . $.                                                                                              ",
"  $.. N ~ ~ ~ ~ ~ ~ . N . . . . . . $.                                                                                              ",
"$.. N ~ ~ ~ ~ ~ ~ ~ . ~ . . . . . . $.$.$.$.$.$.$.$.$.$.$.$.$.$.$.$.$.$.$.$.$.$.$.$.$.$.$.$.$.$.$.$.$.$.$.$.                        ",
"$.. ~ ~ ~ ~ ~ ~ ~ ~ . ~ ' . . . . . . . . . . . . . . . . . X . . . . . . . . X . . . . . . . . . . . . . . $.                      ",
"$.. N ~ ~ ~ ~ ~ ~ N . ~ +.+.+.+.+.@.+.@.#.@.+.@.@.#.#.#.#.#.@.@.@.+.+.+.X.@.#.@.+.@.@.#.#.#.#.#.@.@.+.+.' ~ . $.                    ",
"$.. . . . . . . . . . ~ +.+.+.+.+.+.+.+.+.+.+.+.+.+.+.+.+.+.+.+.+.+.+.+.+.+.+.+.+.+.+.+.+.+.+.+.+.+.+.+.+.' ~ . $.                  ",
"$.$.$.$.$.$.$.$.$.$.. ~ +.+.+.+.+.+.+.+.+.+.+.+.+.+.+.+.+.+.+.+.+.+.+.+.+.+.+.+.+.+.+.+.+.+.+.+.+.+.+.+.+.+.~ . $.                  ",
"                  $.. ~ +.+.+.+.+.+.Q , q ' ! , q ' +.+.+.| 4 X ( ' 4 - ( +.+.+.( , q ' ( , 0 ' +.+.+.+.+.+.~ . $.                  ",
"                  $.. ~ +.+.+.+.+.` < y w , 9 b m q +.+.+.4 u i $ - c E 1 } +.} 3 u w , 5 b M 0 +.+.+.+.+.+.~ . $.                  ",
"                  $.. ~ +.+.+.+.+.^ + g J x A T b 4 +.+.+.; p L G G H R # { O.[ o k K x C Y F : +.+.+.+.+.+.~ . $.                  ",
"                  $.. ~ +.+.+.+.+.^ + g H U U U z 4 +.+.+.; p P H U U U # { O.[ o k U U U U A : +.+.+.+.+.+.~ . $.                  ",
"                  $.. ~ +.+.+.+.+.X.B = s H U C 7 ! +.+.+.) > a I U U & W O.+.X.V % l H U S < Q +.+.+.+.+.+.~ . $.                  ",
"                  $.. ~ +.+.+.+.+.+.X.B = g r 9 / +.+.+.+.+.) > a f $ W O.+.+.+.o.V % g t < Q +.+.+.+.+.+.+.~ . $.                  ",
"                  $.. ~ ' +.+.+.+.+.+.X.B + 7 / +.+.+.+.+.+.+.) > X W +.+.+.+.+.+.o.V + 2 Q +.+.+.+.+.+.+.+.~ . $.$.$.$.$.$.$.$.$.$.",
"                  $.. N ~ ' +.+.+.+.+.+.X._ ` O.+.+.+.+.+.+.+.+... .O.+.+.+.+.+.+.+.X._ ` +.+.+.+.+.+.+.+.' ~ . . . . . . . . . . $.",
"                    $.. N ~ ~ ~ ~ ~ ~ ~ ~ ~ ~ ~ ~ ~ ~ ~ ~ ~ ~ ~ ~ ~ ~ ~ ~ ~ ~ ~ ~ ~ ~ ~ ~ ~ ~ ~ ~ ~ ~ ~ ~ ~ ~ . N ~ ~ ~ ~ ~ ~ N . $.",
"                      $.. . . . . . . . . . . . . . . . . . . . . . . . . . . . . . . X . . . . . . . . . N ~ . ~ ~ ~ ~ ~ ~ ~ ~ . $.",
"                        $.$.$.$.$.$.$.$.$.$.$.$.$.$.$.$.$.$.$.$.$.$.$.$.$.$.$.$.$.$.$.$.$.$.$.$.. . . . . . ~ . ~ ~ ~ ~ ~ ~ ~ N . $.",
"                                                                                              $.. . . . . . N . ~ ~ ~ ~ ~ ~ N . $.  ",
"                                                                                              $.. . . . . N . N ~ ~ ~ ~ ~ ~ . $.    ",
"                                                                                              $.. . . . . . N ~ ~ ~ ~ ~ ~ ~ . $.    ",
"                                                                                              $.. . N N ~ ~ ~ ~ ~ ~ ~ ~ ~ ~ N . $.  ",
"                                                                                              $.. N ~ ~ ~ ~ ~ ~ ~ ~ ~ ~ ~ ~ ~ N . $.",
"                                                                                              $.. N ~ ~ ~ ~ ~ ~ ~ ~ ~ ~ ~ ~ ~ ~ . $.",
"                                                                                                $.. N ~ ~ ~ ~ ~ ~ ~ ~ ~ ~ ~ ~ N . $.",
"                                                                                                  $.. . . . . . . . . . . . . . . $.",
"                                                                                                    $.$.$.$.$.$.$.$.$.$.$.$.$.$.$.$."
};
