/* XPM */
static char *_e3c3f42f1194c07f5bd2111a0aa1d5f6Bs0xPImmCPtHstS[] = {
/* columns rows colors chars-per-pixel */
"66 34 77 1 ",
"  c None",
". c #3F3851",
"X c #4D3753",
"o c #4F3753",
"O c #5C3755",
"+ c #693757",
"@ c #663F58",
"# c #7B3D53",
"$ c #7B3F54",
"% c #753C5A",
"& c #7C3858",
"* c #4E4055",
"= c #504156",
"- c #5F495A",
"; c #6C4255",
": c #67475A",
"> c #6A4959",
", c #6D505E",
"< c #79525F",
"1 c #765560",
"2 c #7F5B63",
"3 c #853E53",
"4 c #8F385E",
"5 c #92355E",
"6 c #99365D",
"7 c #9E3760",
"8 c #A63461",
"9 c #B53363",
"0 c #BD3860",
"q c #D33E5D",
"w c #D53F5C",
"e c #C63563",
"r c #C63564",
"t c #C93762",
"y c #CC3960",
"u c #9F4356",
"i c #83515F",
"p c #BD4355",
"a c #BE4758",
"s c #9C7070",
"d c #9D7170",
"f c #BB626B",
"g c #BC6268",
"h c #A87C76",
"j c #AE7D77",
"k c #C14355",
"l c #CC4455",
"z c #CF4455",
"x c #CF4D5B",
"c c #D14555",
"v c #D44456",
"b c #DA4556",
"n c #D64259",
"m c #D6405B",
"M c #E04656",
"N c #E04757",
"B c #E14958",
"V c #D75D65",
"C c #A7877D",
"Z c #BE8A7E",
"A c #D18679",
"S c #AE8C80",
"D c #CD9383",
"F c #C19A89",
"G c #C69E8B",
"H c #D19784",
"J c #DC9D88",
"K c #D2A790",
"L c #D5A991",
"P c #D6AA92",
"I c #DBAE93",
"U c #DFB195",
"Y c #E2B296",
"T c #E6B698",
"R c #EED1AE",
"E c #F6EACF",
"W c #F6F5FA",
/* pixels */
"WWWWWWWWWWWWWWWW                                                  ",
"W...............W                                                 ",
"W.fAAAAAAAAAAAf..W                                                ",
"W.AAAAAAAAAAAAAf..W                                               ",
"W.fAAAAAAAAAAAAf..W                                               ",
" W.fAAAAAAAAAff...W                                               ",
"  W.AAAAAAAf......W                                               ",
"  W.AAAAAAf.f.....W                                               ",
" W.fAAAAAA.f......W                                               ",
"W.fAAAAAAA.A......WWWWWWWWWWWWWWWWWWWWWWWWWWWWWWWWWWWW            ",
"W.AAAAAAAA.AJ.........................................W           ",
"W.fAAAAAAf.ATTTTTRTRERTRREEEEERRRTTTTRERTRREEEEERRTTJA.W          ",
"W..........ATTTTTTTTTTTTTTTTTTTTTTTTTTTTTTTTTTTTTTTTTJA.W         ",
"WWWWWWWWWW.ATTTTTTTTTTTTTTTTTTTTTTTTTTTTTTTTTTTTTTTTTTA.W         ",
"         W.ATTTTTTD-,JD-,JTTTJ2*hJ2*hTTTJAAJJAAJTTTTTTA.W         ",
"         W.ATTTTTP:87->ag,TTT249%*uViSTTAAAAAAAATTTTTTA.W         ",
"         W.ATTTTTKornpkMx=TTT15qvlbB$CTTAAAAAAAATTTTTTA.W         ",
"         W.ATTTTTKoeMMMMl=TTT15wMMMM#CTTAAAAAAAATTTTTTA.W         ",
"         W.ATTTTTYj+yMMc;ZTTTH<6mMM3dUTTJAAAAAAJTTTTTTA.W         ",
"         W.ATTTTTTYj+t0;ZTTTTTH<6t&dUTTTTJAAAAJTTTTTTTA.W         ",
"         W.AJTTTTTTYjO;STTTTTTTH1osUTTTTTTJAAJTTTTTTTTA.WWWWWWWWWW",
"         W.fAJTTTTTTYFGTTTTTTTTTILUTTTTTTTTTTTTTTTTTTJA..........W",
"          W.fAAAAAAAAAAAAAAAAAAAAAAAAAAAAAAAAAAAAAAAAAA.fAAAAAAf.W",
"           W...........X...........X.................fA.AAAAAAAA.W",
"            WWWWWWWWWWWWWWWWWWWWWWWWWWWWWWWWWWWW......A.AAAAAAAf.W",
"                                               W......f.AAAAAAf.W ",
"                                               W.....f.fAAAAAA.W  ",
"                                               W......fAAAAAAA.W  ",
"                                               W..ffAAAAAAAAAAf.W ",
"                                               W.fAAAAAAAAAAAAAf.W",
"                                               W.fAAAAAAAAAAAAAA.W",
"                                                W.fAAAAAAAAAAAAf.W",
"                                                 W...............W",
"                                                  WWWWWWWWWWWWWWWW"
};
