/* XPM */
static char *_c83a02529db4991b1b825e4e60cfaea7NkJznbiF0xApEQh[] = {
/* columns rows colors chars-per-pixel */
"66 34 44 1 ",
"  c None",
". c #3F3851",
"X c #5C3755",
"o c #5E3756",
"O c #763758",
"+ c #5F495A",
"@ c #614B5A",
"# c #70455B",
"$ c #71465B",
"% c #754858",
"& c #754959",
"* c #7A5761",
"= c #96395F",
"- c #B1385E",
"; c #A63461",
": c #CF3B5F",
"> c #CA3761",
", c #C83662",
"< c #C93762",
"1 c #BA4355",
"2 c #BD4355",
"3 c #BD4A5A",
"4 c #BF4B5A",
"5 c #B05F67",
"6 c #BB626B",
"7 c #A37473",
"8 c #C24355",
"9 c #C54455",
"0 c #D34258",
"q c #E04656",
"w c #E14857",
"e c #BF8A7E",
"r c #C28C7F",
"t c #D18679",
"y c #BF9887",
"u c #C19A89",
"i c #C89E8B",
"p c #DC9D88",
"a c #CAA08C",
"s c #DDB094",
"d c #E6B698",
"f c #EED1AE",
"g c #F6EACF",
"h c #F6F5FA",
/* pixels */
"hhhhhhhhhhhhhhhh                                                  ",
"h...............h                                                 ",
"h.6ttttttttttt6..h                                                ",
"h.ttttttttttttt6..h                                               ",
"h.6tttttttttttt6..h                                               ",
" h.6ttttttttt66...h                                               ",
"  h.ttttttt6......h                                               ",
"  h.tttttt6.6.....h                                               ",
" h.6tttttt.6......h                                               ",
"h.6ttttttt.t......hhhhhhhhhhhhhhhhhhhhhhhhhhhhhhhhhhhh            ",
"h.tttttttt.tp.................X.......................h           ",
"h.6tttttt6.tdddddfdfgfdffgggggfffddddfgfdffgggggffddpt.h          ",
"h..........tdddddddddddddddddddddddddddddddddddddddddpt.h         ",
"hhhhhhhhhh.tddddddddddddddddddddddddddddddddddddddddddt.h         ",
"         h.tdddddde+*pe+*pdddpttppttpdddpttppttpddddddt.h         ",
"         h.tddddda#;=+%36*dddttttttttdddttttttttddddddt.h         ",
"         h.tdddddyo>089w9@dddttttttttdddttttttttddddddt.h         ",
"         h.tdddddyo>0wqq-@dddttttttttdddttttttttddddddt.h         ",
"         h.tddddds7O:qq9%udddpttttttpdddpttttttpddddddt.h         ",
"         h.tdddddds7O>-%rdddddpttttpdddddpttttpdddddddt.h         ",
"         h.tpdddddds7X$rdddddddpttpdddddddpttpddddddddt.hhhhhhhhhh",
"         h.6tpdddddssuaddddddddddddddddddddddddddddddpt..........h",
"          h.6ttttttttrttttttttttttttttttttttttttttttttt.6tttttt6.h",
"           h...........X.............................6t.tttttttt.h",
"            hhhhhhhhhhhhhhhhhhhhhhhhhhhhhhhhhhhh......t.ttttttt6.h",
"                                               h......6.tttttt6.h ",
"                                               h.....6.6tttttt.h  ",
"                                               h......6ttttttt.h  ",
"                                               h..66tttttttttt6.h ",
"                                               h.6ttttttttttttt6.h",
"                                               h.6tttttttttttttt.h",
"                                                h.6tttttttttttt6.h",
"                                                 h...............h",
"                                                  hhhhhhhhhhhhhhhh"
};
