/* XPM */
static char *bdee859053184e31b05167e688ff93a7nCM7ZbdFj8KEqeiC[] = {
/* columns rows colors chars-per-pixel */
"37 37 22 1 ",
"  c None",
". c #3F3851",
"X c #25667E",
"o c #E44B3B",
"O c #B9355C",
"+ c #DA4949",
"@ c #E36254",
"# c #F07860",
"$ c #EF895A",
"% c #CD8674",
"& c #F69972",
"* c #F6C27D",
"= c #5F7D93",
"- c #298A91",
"; c #37AB9C",
": c #768EA1",
"> c #8CA9B5",
", c #DEB19C",
"< c #ECD4BE",
"1 c #FFEFA9",
"2 c #A5C2C7",
"3 c #F2F7F6",
/* pixels */
"                                     ",
"                                     ",
"                                     ",
"                                     ",
"                                     ",
"                                     ",
"                                     ",
"                                     ",
"                                     ",
"                                     ",
"                                     ",
"               .....  ...... .       ",
"              .o$$*$..$**1*1.*.      ",
"              .$$$**..**...1.1.      ",
"              .$$$**$***$.$1*1.      ",
"              .o$$**$******1**.      ",
"              .................      ",
"             .=::.=::2.222.32.3.     ",
"             ...................     ",
"             ..O++++++%,,,,,%+..     ",
"              .+++@#@,.<<<<<.,.      ",
"              .O++###<<<####<<.      ",
"              ...+@+#####..###.      ",
" .........   .....++###&#+.###.      ",
".23332332>. .<<,%.O.@+###&&###..     ",
".3>>>>>>>:. .<<<,...++#@+##@+@.<.    ",
".2>2>>>2>:. .<<<,%..O.++++++.+.<.    ",
".2>:>>>:>:. .<..%%%...O+.O+O.O.,. .. ",
".2>>>>>>>:........................23.",
".2>>>>>>>:...==>>>2223233322>>>=..>2.",
".2>>>>>>>:........................=>.",
".2>>>>>>>:.   ..................  .. ",
".2>2>>>2>:.  ..X-----;;-;-----X.     ",
".2>:>>>:>:.  .X-X..............      ",
".>:::::::=.   ...                    ",
" .........                           ",
"                                     "
};
