/* XPM */
static char *_95650b239ac43f782ca92d05b981343s2s7BZcjDAexSpHU[] = {
/* columns rows colors chars-per-pixel */
"32 32 202 2 ",
"   c #6E5967",
".  c #6D5967",
"X  c #705A68",
"o  c #896270",
"O  c #926672",
"+  c #956C76",
"@  c #9D797E",
"#  c #9E7A7E",
"$  c #9E797E",
"%  c #83646F",
"&  c #6D5867",
"*  c #735B69",
"=  c #745B69",
"-  c #805F6D",
";  c #A86E7A",
":  c #AE707B",
">  c #B88185",
",  c #C49591",
"<  c #C49590",
"1  c #C3938F",
"2  c #C08F8D",
"3  c #BE8B8B",
"4  c #BD8A8B",
"5  c #C18F8D",
"6  c #B48989",
"7  c #866872",
"8  c #725A68",
"9  c #A26C78",
"0  c #A76E79",
"q  c #A96E7A",
"w  c #AD707B",
"e  c #AD6F7B",
"r  c #B98286",
"t  c #C49490",
"y  c #C39490",
"u  c #C49692",
"i  c #C59893",
"p  c #C69A95",
"a  c #BF918E",
"s  c #967279",
"d  c #9B6975",
"f  c #A96F7A",
"g  c #A66D79",
"h  c #896370",
"j  c #A16B78",
"k  c #A56D79",
"l  c #A56D78",
"z  c #A56C78",
"x  c #AD7980",
"c  c #B88C8A",
"v  c #B98D8B",
"b  c #B88D8B",
"n  c #B88C8B",
"m  c #946F77",
"M  c #9A6875",
"N  c #886270",
"B  c #946673",
"V  c #956874",
"C  c #9D757B",
"Z  c #A27C7F",
"A  c #8D6A74",
"S  c #99747A",
"D  c #A37F81",
"F  c #A48384",
"G  c #A78787",
"H  c #A78988",
"J  c #A58384",
"K  c #A27C80",
"L  c #9B767C",
"P  c #936773",
"I  c #A27D80",
"U  c #8F6571",
"Y  c #B78084",
"T  c #B98386",
"R  c #C1908E",
"E  c #BB8E8C",
"W  c #9B777C",
"Q  c #B88B8A",
"!  c #C59691",
"~  c #C59792",
"^  c #C69893",
"/  c #C69993",
"(  c #BA8487",
")  c #C2918E",
"_  c #C59591",
"`  c #BB8688",
"'  c #C29491",
"]  c #C39592",
"[  c #BE8E8D",
"{  c #A67F82",
"}  c #906F76",
"|  c #BA8E8C",
" . c #C2918F",
".. c #B38888",
"X. c #8F6E76",
"o. c #B98E8C",
"O. c #B98F8C",
"+. c #B98B8A",
"@. c #967078",
"#. c #AB8083",
"$. c #9E777C",
"%. c #A37E81",
"&. c #A48284",
"*. c #A78888",
"=. c #AB9191",
"-. c #A98C8C",
";. c #A58385",
":. c #A07E81",
">. c #9F7A7E",
",. c #A17C7F",
"<. c #8B6A73",
"1. c #C79B96",
"2. c #C69A94",
"3. c #A17A7E",
"4. c #9D777D",
"5. c #BD8A8A",
"6. c #B38A89",
"7. c #8A6A73",
"8. c #B48687",
"9. c #B68A89",
"0. c #B9908D",
"q. c #B6908E",
"w. c #AD8585",
"e. c #916D76",
"r. c #AB8183",
"t. c #8D6B74",
"y. c #A27E80",
"u. c #A98D8D",
"i. c #A88888",
"p. c #9D7A7E",
"a. c #BA8386",
"s. c #BC8788",
"d. c #A17B7F",
"f. c #C79A95",
"g. c #C39390",
"h. c #BD898A",
"j. c #C08E8D",
"k. c #C0938F",
"l. c #A78183",
"z. c #A66D78",
"x. c #A86E79",
"c. c #AE717B",
"v. c #C39591",
"b. c #BC928E",
"n. c #735A68",
"m. c #7D5D6C",
"M. c #9D6976",
"N. c #A46B77",
"B. c #AC797F",
"V. c #967178",
"C. c #947078",
"Z. c #98767B",
"A. c #A58586",
"S. c #A48385",
"D. c #A17D80",
"F. c #A38183",
"G. c #9D787D",
"H. c #A07A7E",
"J. c #A38082",
"K. c #A48183",
"L. c #A17C80",
"P. c #9A7179",
"I. c #976B75",
"U. c #8F6873",
"Y. c #79606C",
"T. c #775F6B",
"R. c #C59692",
"E. c #B38988",
"W. c #C49691",
"Q. c #AE6F7B",
"!. c #705968",
"~. c #BE908D",
"^. c #A68687",
"/. c #A48586",
"(. c #C18F8E",
"). c #C2908E",
"_. c #9F7E81",
"`. c #AA8E8E",
"'. c #AC9292",
"]. c #A88989",
"[. c #BB888A",
"{. c #BC898C",
"}. c #BB8689",
"|. c #BB8588",
" X c #AC6F7B",
".X c #AD717B",
"XX c #AC6F7A",
"oX c #A86D79",
"OX c #A8717B",
"+X c #C0908D",
"@X c #C39491",
"#X c #C29390",
"$X c #C59A94",
"%X c #BC918E",
"&X c #9B767B",
"*X c #755C69",
"=X c #A46C79",
"-X c #B67E83",
";X c #C3928F",
":X c #B48787",
">X c #7E626D",
",X c white",
/* pixels */
"  . X o O + @ # # # # # # # $ % & . X o O + @ # # @ + O o X .   ",
"* = - ; : > , < , 1 2 3 4 5 6 7 8 = - ; : > , < < , > : ; - = X ",
"9 0 q w e r , t t y u i p y a s d 0 q w e r , t t , r e w f g h ",
"j g k l z x c v b n n n c n c m M g k l z x c v b c x z l k k N ",
"O B B B V C Z A S D F G H J K L P B B B V C Z A S I C V B B B U ",
"r r r Y T R E W Q ! ~ ^ / ~ , 1 ( r r Y T ) a W Q _ 1 ` r r r r ",
", , ~ ' ] [ { } | , t t t t t < , , ~ ' ]  ...X.| , < , , , , , ",
"b n b o.O.b +.@.#.v n n n n n v b n b o.O.b Q @.#.v n n n n n v ",
"$.%.&.*.=.-.;.:.>.I I I I I ,.A S D &.*.=.-.;.:.>.I I I I I ,.<.",
"1 , ~ ^ 1.2.~ ~ , < , , , , _ 3.Q ! ~ ^ 1.2.~ ~ , < , , , , _ 4.",
"< t t t y y t t t < 1 5.R 6.I } | , t t y y t t t < 1 5.R 6.I 7.",
"8.b n n n n n v b n c 9.0.q.w.e.r.v n n n n n v b n c 9.0.q.w.t.",
",.y.y.y.I I ,.A S D J G u.=.i.$ >.I I I I I K A S D J G u.=.*.p.",
"a.T T T s.1 _ d.Q ! ~ ^ f.1.^ _ , g.h.j. .k.l.X.c ! ~ ^ f.1.^ _ ",
"z.x.e e c.` ! y.v , t t y y t t t y v.g.i p b.L v , t t y y t t ",
"n.m.M.z N.B.Q V.#.v n n n n n v b n n n c n c V.#.v b v v | | | ",
"C.Z.:.A.S.D.F.G.H.I I I I I Z t.S I F H G J.K.G.H.L.P.I.U.Y.T.T.",
"g._ ~ / ^ ! R., , 1 2 3 5.5 E.X.c _ ~ / ^ W.R., , , > Q.x.- * !.",
"< t t t t t t t t y u i p y ~.L v , t t t t t t t , r e w f g h ",
"8.n n n n n n v b n n n c n c V.#.v n n n n n v b c x z l k k N ",
"^.J I I I I Z t.S D F G H J ,.@ /.J I I I I Z t.S I C V B B B U ",
"/ ~ , (.j.).E.X.c ! ~ ^ / ~ < _ ^ ~ , (.j.).E.X.c _ 1 ` r r r r ",
"t t W.i p y ~.L v , t t t t t t t t W.i p y ~.L v , < , , , , , ",
"b n n c c c Q V.#.v n n n n n v b n n c c c Q V.#.v n n n n n v ",
"$.%.F *.=.-.;._.>.I I I I I ,.A S D F *.=.-.;._.>.I I I I I ,.<.",
"1 , ~ ^ 1.2.~ ~ , < , , , , _ 3.Q ! ~ ^ 1.2.~ ~ , < , , , , _ 4.",
"< t t t y y t t t < 1 5.R 6.I } | , t t y y t t t < 1 5.R 6.I 7.",
"8.b n n n n n v b n c 9.0.q.w.e.r.v n n n n n v b n c 9.0.q.w.t.",
",.y.y.y.I I ,.A S D J G `.'.].# >.I I I I I K A S D J G `.'.].# ",
"a.T T T s.1 _ d.Q ! , 5.[.{.}.|.1 g.h.j. .k.l.X.c ! , 5.[.{.}.( ",
"l x. Xe c.` , I b , ` .XXXXXoXOX+Xy @X#Xi $X%X&Xv , ` .XXXXXoXl ",
"*X- =Xw e -X;XC :Xy -Xe w =X- >XE t y y y y g.C :Xy -Xe w =X- *X"
};
