/* XPM */
static char *_ddb3283ffe145a28aff391f46ac7647MOQN9qTFrIJUA1LI[] = {
/* columns rows colors chars-per-pixel */
"32 32 108 2 ",
"   c #3C3751",
".  c #3E3851",
"X  c #443751",
"o  c #4D3752",
"O  c #453951",
"+  c #4C3B52",
"@  c #543753",
"#  c #523E54",
"$  c #5A3D53",
"%  c #683C4F",
"&  c #713D4F",
"*  c #633754",
"=  c #653C51",
"-  c #6C3B52",
";  c #733E50",
":  c #7D3A53",
">  c #514054",
",  c #5C4054",
"<  c #654152",
"1  c #6B4254",
"2  c #744453",
"3  c #7E4554",
"4  c #744855",
"5  c #794B56",
"6  c #77525B",
"7  c #7D515A",
"8  c #7B5E62",
"9  c #6B6069",
"0  c #7C6263",
"q  c #8F3E51",
"w  c #903E51",
"e  c #93404F",
"r  c #864552",
"t  c #834B55",
"y  c #884853",
"u  c #9A4E58",
"i  c #895157",
"p  c #84545B",
"a  c #8D555A",
"s  c #93565A",
"d  c #9C545B",
"f  c #94595A",
"g  c #A6464F",
"h  c #AE5154",
"j  c #A35759",
"k  c #A55C5B",
"l  c #A95D5B",
"z  c #B05355",
"x  c #AB615C",
"c  c #A25F60",
"v  c #9C6261",
"b  c #936966",
"n  c #997C72",
"m  c #A26362",
"M  c #A56A65",
"N  c #B46560",
"B  c #BD6B61",
"V  c #A67F71",
"C  c #AB7F71",
"Z  c #C16E62",
"A  c #CA7567",
"S  c #CB796A",
"D  c #D37D6D",
"F  c #9B8276",
"G  c #A68275",
"H  c #AF8776",
"J  c #A98A79",
"K  c #A9917F",
"L  c #D3806F",
"P  c #D38471",
"I  c #DA997D",
"U  c #EF9B7C",
"Y  c #EF9C7D",
"T  c #9D8D83",
"R  c #AA9080",
"E  c #AA9381",
"W  c #AA9383",
"Q  c #AA9483",
"!  c #AA9786",
"~  c #AA9988",
"^  c #AA9889",
"/  c #AA998A",
"(  c #AA9A8A",
")  c #AA9C8C",
"_  c #AA9E91",
"`  c #F0A481",
"'  c #F1A582",
"]  c #F1A683",
"[  c #F7B88C",
"{  c #F7B88D",
"}  c #F9C192",
"|  c #FBC192",
" . c #F9C292",
".. c #FBC293",
"X. c #FAC393",
"o. c #FDC493",
"O. c #FDC494",
"+. c #FCC895",
"@. c #FCC896",
"#. c #FCCC98",
"$. c #FFCE99",
"%. c #FECE9A",
"&. c #FFCF9B",
"*. c #FFD09B",
"=. c #FED19D",
"-. c #FED19E",
";. c #FED29F",
":. c #FFD5A0",
/* pixels */
"0 R ) K 8 b J / ! Q / K J b 6 G / K J b 6 G K _ / J b 8 H / K 0 ",
"J &.;.*.H I &.;.*.*.;.#.*.I M [ ;.*.*.I M } &.;.;.;.I H ;.;.&.J ",
"V O.&.@.C P [ } X.X.} } [ P v ' [ } [ P m ' } ..} [ P G @.&.@.G ",
"v U ` U m B D L S L L L D B f D P P D B s S D P L D B m U ' U v ",
"4 c k m < + # # , , , $ $ $ # , $ , , $ + , , $ > + + 1 d m m 4 ",
"b I P B + $ % $ * e e : * w w : * e e : * q e : @ = $ + B P I b ",
"J %.[ D # o t s a t 2 a a 2 t f a t 2 a a 2 t f a t + # D [ &.K ",
"^ %.} P + X d B Z k t B B 3 x B B x t B B t k B B u X # D @.*.R ",
"_ :.} D > - y i 4 f a f 4 t f i 4 f a i 4 a f i 2 r - $ S } ;./ ",
"R %.[ P $ q h k t B Z B t l Z l t B Z x t Z B k t h q , P } ;.R ",
"V ..] D > + r s a t $ 1 % $ $ 2 2 - + O O $ 3 f a 3 o + D ' X.G ",
"6 M v s O X u B B u X + $ # $ $ # $ > + . X d B B u X + s m M 6 ",
"b I P B # - y i 2 r - # B D L p 5 S A N # - r t 2 r - # B D I b ",
"J &.[ D $ q z k t h q , D Y o.n n o.Y D $ q g j t h q $ D [ &.K ",
"R &.} P + o 7 f a 3 o # D O.;.F F ;.@.L > + 3 f a 3 + # L } ;._ ",
"Q ;.} D > X d B B u X O p n T 9 9 T n i O X u B B u O > D } ;.K ",
"K *.} L $ - y i 2 r - + p n T 9 9 T F p + % y y 4 y % $ D X.*.Q ",
"_ ;.} L , q h l t g q $ L o.;.F F ;.o.L , q z k t h q $ L } &.K ",
"R ;.[ D + @ 4 f a 3 + # D Y o.n n o.Y L > O 3 f a 3 O # D [ &.J ",
"b I P B + $ t B Z u O + Z D D p p D D B + X u B B u X # B P I b ",
"6 M m f + - y i $ O O . + > > X O > # + O % y i 4 r - + s m M 6 ",
"G } Y D , q h l O   .   . $ % $ + % % % @ q h k t h w $ S ' } C ",
"K *.} L + + < i p i < 5 a t 2 a a s 2 y a t 4 f a 3 + + D } &.K ",
"/ *.| L > O - x Z B t k Z k y B B B t k Z k t B B u X > P } ;./ ",
"Q *.} D > - t t 2 f f i 4 f a i 4 f a i 2 s s i 2 y = $ P @.&.J ",
"K *.[ D , q z l t B B l y B Z l t B Z l t Z Z k t h e , S [ ;.J ",
"b I P B + + - ; & 1 + + O > 1 2 ; 2 > + O # 1 2 & - o + B P I b ",
"4 k v m < + $ < , , > + + > $ , , @ + > + # $ $ $ , + 1 c m c 4 ",
"v U ' U m B D D D D D s B D L D D f B D P S D P D D B v U ` U v ",
"G @.#.@.G P [ O.} } ` m P [ } } U m P [ } } ....} [ P C @.&.@.V ",
"G ;.;.&.H I ;.&.;.&.} M I *.*.;.} M I &.%.:.%.%.:.%.I H &.:.&.J ",
"0 J / K 8 b J K / K G 6 b J R / G 6 b J R ^ W ^ ^ J b 8 R ) J 0 "
};
